<?xml version="1.0" encoding="UTF-8"?>
<svg version="1.1" xmlns="http://www.w3.org/2000/svg" width="1158" height="182">
<path d="M0 0 C6.95711827 4.43602393 11.5524179 9.28551672 13.50799561 17.50898743 C14.00928855 20.47452074 14.11408946 23.25892812 14.13378906 26.26635742 C14.14339661 27.45496872 14.15300415 28.64358002 14.16290283 29.86820984 C14.16715271 31.1453334 14.17140259 32.42245697 14.17578125 33.73828125 C14.18002232 34.72216041 14.18002232 34.72216041 14.18434906 35.72591591 C14.19930536 39.19984967 14.20855618 42.67374232 14.21289062 46.14770508 C14.2183577 49.71041282 14.24235807 53.27273501 14.27086258 56.83532238 C14.28962376 59.59710231 14.29470174 62.35879204 14.2962265 65.12063026 C14.30067019 67.06469293 14.31925197 69.00870705 14.3381958 70.9526825 C14.31114164 81.80980016 12.88450597 91.2946981 4.97265625 99.2578125 C-6.08420516 108.03309933 -17.11942863 109.15697848 -30.91796875 108.01953125 C-35.10508201 107.39898602 -38.20478448 106.66283915 -41.21484375 103.5703125 C-43.02734375 100.2578125 -43.02734375 100.2578125 -43.02734375 96.5703125 C-41.56682714 91.73235125 -41.56682714 91.73235125 -39.02734375 90.2578125 C-33.83116537 89.08131928 -29.32037492 89.37223071 -24.02734375 89.8828125 C-18.04306559 90.38364265 -14.31828049 90.10677844 -9.02734375 87.2578125 C-5.45503077 81.89934303 -5.90510404 76.4920375 -6.02734375 70.2578125 C-6.66671875 70.8559375 -7.30609375 71.4540625 -7.96484375 72.0703125 C-14.9065975 77.02870804 -21.93180242 77.94478764 -30.2109375 77.01171875 C-37.32578525 75.81563516 -43.1984735 72.63674085 -47.85546875 67.07421875 C-56.10873657 55.1951221 -56.74701097 39.87030828 -54.27734375 25.8828125 C-51.80680954 15.59175964 -46.95629551 7.26249988 -37.96484375 1.3828125 C-27.71488829 -4.81483498 -10.74075224 -5.41773393 0 0 Z M-29.640625 18.5859375 C-35.1328959 24.74246535 -35.36855955 31.44711418 -35.33984375 39.2578125 C-35.35595703 40.134375 -35.37207031 41.0109375 -35.38867188 41.9140625 C-35.39257532 47.0978414 -35.01736382 50.83015298 -32.02734375 55.2578125 C-28.5282252 58.62679854 -25.33131021 58.98739895 -20.62890625 59.3203125 C-15.20990617 59.19012631 -11.41070504 57.64117379 -7.58984375 53.8203125 C-4.09822176 48.09405243 -4.84369968 41.83298623 -4.83984375 35.3203125 C-4.82147461 33.69319336 -4.82147461 33.69319336 -4.80273438 32.03320312 C-4.80080078 30.98455078 -4.79886719 29.93589844 -4.796875 28.85546875 C-4.79276611 27.90164307 -4.78865723 26.94781738 -4.78442383 25.96508789 C-5.04860398 23.02087314 -5.71510732 20.89969811 -7.02734375 18.2578125 C-13.75146042 12.87851916 -23.00675754 13.12464225 -29.640625 18.5859375 Z " fill="#06283D" transform="translate(1022.02734375,57.7421875)"/>
<path d="M0 0 C6.87785934 5.79635849 9.92286894 11.91152772 11.1875 20.8125 C11.48252383 26.74646998 11.469504 32.67319835 11.453125 38.61328125 C11.45447412 40.33961542 11.45641671 42.06594922 11.45892334 43.7922821 C11.46185903 47.39386648 11.45762461 50.99535111 11.44824219 54.59692383 C11.43680551 59.21152006 11.44344348 63.8258847 11.45538712 68.4404726 C11.46261124 71.99807993 11.46031599 75.55563222 11.45513153 79.1132412 C11.45379879 80.81528946 11.45542961 82.51734274 11.46009064 84.21938515 C11.46516968 86.59341339 11.45742837 88.96706432 11.44628906 91.34106445 C11.45033752 92.04190155 11.45438599 92.74273865 11.45855713 93.46481323 C11.42728043 97.06294632 11.29658151 99.82705232 9.1875 102.8125 C6.0024857 104.93584287 4.94293693 105.13196711 1.25 105.1875 C0.39535156 105.21585937 -0.45929688 105.24421875 -1.33984375 105.2734375 C-4.73877361 104.63982972 -5.7147656 103.55274203 -7.8125 100.8125 C-8.23042995 98.07539523 -8.41722211 95.72263895 -8.421875 92.984375 C-8.43841125 92.23536926 -8.45494751 91.48636353 -8.47198486 90.71466064 C-8.5204351 88.33052346 -8.54182772 85.94702389 -8.5625 83.5625 C-8.5906624 81.94267631 -8.62059022 80.32288228 -8.65234375 78.703125 C-8.72619244 74.73963586 -8.77578457 70.77650002 -8.8125 66.8125 C-9.47636719 67.23402344 -10.14023437 67.65554687 -10.82421875 68.08984375 C-11.70722656 68.63769531 -12.59023438 69.18554688 -13.5 69.75 C-14.37011719 70.29527344 -15.24023438 70.84054688 -16.13671875 71.40234375 C-22.9832735 75.01052808 -31.17346047 74.44788223 -38.515625 72.625 C-46.89296513 69.66158717 -53.00184149 63.6763052 -56.80859375 55.734375 C-61.5102092 43.94659273 -61.90657126 27.14808582 -57.84375 15.12890625 C-53.95520081 6.39439992 -48.22785847 0.00880449 -39.609375 -4.28515625 C-27.14162722 -8.84394158 -10.79935676 -7.74160108 0 0 Z M-37.6875 17.875 C-40.57214412 22.84299821 -40.07096712 28.05240857 -40.125 33.625 C-40.15400391 34.61048828 -40.18300781 35.59597656 -40.21289062 36.61132812 C-40.28014482 44.31452011 -38.88115435 47.47308203 -33.6875 53.125 C-29.08101132 55.82880857 -23.99299809 56.54738782 -18.75 55.3359375 C-15.03406337 53.87839339 -12.19783352 51.99294469 -9.8125 48.8125 C-7.74466129 43.07759481 -7.4774939 37.81314332 -7.5 31.75 C-7.48388672 30.87794922 -7.46777344 30.00589844 -7.45117188 29.10742188 C-7.4472417 23.9156576 -7.91973974 20.30296483 -10.8125 15.8125 C-15.43608132 11.62237943 -20.01344199 11.47176798 -26.015625 11.52734375 C-31.04260437 12.03987098 -34.27282287 14.11885516 -37.6875 17.875 Z " fill="#06283D" transform="translate(295.8125,61.1875)"/>
<path d="M0 0 C5.35909645 3.87793914 8.86680759 10.53655491 10.1796875 16.9375 C10.28910442 18.71785196 10.34811469 20.50161268 10.37255859 22.28515625 C10.38862152 23.35306396 10.40468445 24.42097168 10.42123413 25.52124023 C10.46575535 30.37775934 10.50670566 35.23414512 10.52978516 40.09082031 C10.54638731 42.65536547 10.5737325 45.21986357 10.61181641 47.78417969 C10.66642419 51.48136392 10.68843078 55.17746752 10.703125 58.875 C10.72579437 60.02299072 10.74846375 61.17098145 10.77182007 62.35375977 C10.75066013 70.28238279 10.75066013 70.28238279 7.83056641 73.6328125 C4.75507576 75.14648187 2.62134595 75.86726207 -0.8203125 75.9375 C-5.54626873 74.26951545 -7.6344017 72.43076108 -9.8203125 67.9375 C-10.69042969 68.56978516 -10.69042969 68.56978516 -11.578125 69.21484375 C-19.40966388 74.70725963 -19.40966388 74.70725963 -24.8203125 74.9375 C-26.0990625 74.999375 -27.3778125 75.06125 -28.6953125 75.125 C-37.91153447 74.94978665 -45.05441932 71.70339318 -51.5703125 65.1875 C-60.1858546 52.74282807 -60.10900805 37.90914654 -58.39453125 23.3125 C-56.35725017 13.71353147 -51.15113958 5.66582283 -42.94921875 0.1875 C-42.24667969 -0.225 -41.54414062 -0.6375 -40.8203125 -1.0625 C-40.12808594 -1.475 -39.43585937 -1.8875 -38.72265625 -2.3125 C-26.92099957 -8.14247792 -11.10849509 -6.48392846 0 0 Z M-33.8203125 16.9375 C-38.83552626 23.40448616 -39.0276469 28.39419645 -39.0703125 36.25 C-39.0909375 37.18779297 -39.1115625 38.12558594 -39.1328125 39.09179688 C-39.16815851 45.3612956 -38.54389405 49.89965904 -34.1953125 54.75 C-29.18891566 57.25319842 -23.89572448 57.57953528 -18.5703125 55.875 C-14.42251644 54.07844961 -12.36134234 51.6335434 -9.8203125 47.9375 C-8.15896253 42.95345008 -8.59381899 37.78094065 -8.5703125 32.5625 C-8.5496875 31.42554687 -8.5290625 30.28859375 -8.5078125 29.1171875 C-8.50265625 28.01890625 -8.4975 26.920625 -8.4921875 25.7890625 C-8.4828418 24.78697754 -8.47349609 23.78489258 -8.46386719 22.75244141 C-8.88017861 19.46472171 -9.8852364 17.60395733 -11.8203125 14.9375 C-18.8024805 10.49430218 -27.61552988 12.22186521 -33.8203125 16.9375 Z " fill="#06283D" transform="translate(938.8203125,60.0625)"/>
<path d="M0 0 C7.45524329 5.24724441 11.51012813 11.20032464 14 20 C14.265625 23.5078125 14.265625 23.5078125 14.25 27.125 C14.25773437 28.92324219 14.25773437 28.92324219 14.265625 30.7578125 C13.86075427 35.69961697 13.86075427 35.69961697 12 38 C6.50015391 40.89211072 2.1550063 41.41275971 -3.99609375 41.29296875 C-4.82963882 41.28872391 -5.6631839 41.28447906 -6.52198792 41.28010559 C-9.16083311 41.26343314 -11.79888916 41.22580358 -14.4375 41.1875 C-16.23631703 41.17243833 -18.03514613 41.15875253 -19.83398438 41.14648438 C-24.22295615 41.11356728 -28.61134469 41.06186567 -33 41 C-32.8634701 42.44062587 -32.72025178 43.8806189 -32.57421875 45.3203125 C-32.49518311 46.12227051 -32.41614746 46.92422852 -32.3347168 47.75048828 C-31.87754459 50.82297894 -31.01620233 52.63617658 -29 55 C-22.47526383 58.89211403 -16.40992091 58.77526706 -9 58 C-6.24710536 57.14984136 -3.73395095 56.10700379 -1.1171875 54.91015625 C1.80779302 53.65273843 3.87986637 53.33139994 7 54 C9.60034316 56.39505291 10.80469587 58.02347933 11.5 61.5 C10.78070905 65.09645475 9.68026035 66.44737109 7 69 C-2.87527323 75.25313834 -13.88289929 77.42575845 -25.375 75.3125 C-33.65818203 73.28104603 -42.40725833 69.12391012 -47.40234375 62 C-54.7605368 49.71501683 -54.84000727 33.22181632 -51.81640625 19.45703125 C-48.64815385 9.92195585 -42.61134079 3.27465076 -33.8125 -1.3125 C-23.76469727 -6.16245773 -9.54514245 -5.81603662 0 0 Z M-29 15 C-31.77055376 18.57323756 -33 21.38746711 -33 26 C-23.43 26 -13.86 26 -4 26 C-4.26935804 18.72307606 -4.26935804 18.72307606 -6.3046875 16.16015625 C-13.35691211 11.23061617 -21.60945823 9.671935 -29 15 Z " fill="#06283D" transform="translate(1105,59)"/>
<path d="M0 0 C6.22541593 4.88562327 9.32543238 11.12473465 11.79296875 18.52734375 C12.96791969 32.03927954 12.96791969 32.03927954 9.60546875 36.33984375 C4.68073848 40.17018952 -0.7441518 39.71481252 -6.7890625 39.84375 C-8.01033089 39.87492165 -8.01033089 39.87492165 -9.25627136 39.90672302 C-11.84394304 39.97183838 -14.43171178 40.03092583 -17.01953125 40.08984375 C-18.7793067 40.13306517 -20.53907253 40.1766806 -22.29882812 40.22070312 C-26.60146434 40.32748055 -30.90419768 40.42885393 -35.20703125 40.52734375 C-34.93558029 42.13212564 -34.65036112 43.73458256 -34.359375 45.3359375 C-34.20202881 46.22853271 -34.04468262 47.12112793 -33.88256836 48.04077148 C-32.91362679 51.60733091 -31.11061854 53.33194848 -28.20703125 55.52734375 C-19.81245954 58.32553432 -11.24037092 56.98430939 -3.39453125 53.37109375 C0.02003652 52.05404618 2.38502516 52.34499598 5.79296875 53.52734375 C7.85546875 55.71484375 7.85546875 55.71484375 8.79296875 58.52734375 C8.14739421 63.58434429 5.62084303 66.16713011 1.78515625 69.20703125 C-6.95733532 75.00107468 -17.91303134 75.48548219 -28.01953125 73.90234375 C-37.6370787 71.77168708 -45.76439379 66.77391982 -51.20703125 58.52734375 C-54.83683817 50.9635219 -55.8630158 43.97107333 -55.70703125 35.65234375 C-55.692771 34.60095215 -55.67851074 33.54956055 -55.66381836 32.46630859 C-55.33878253 20.48906252 -53.41304677 11.46300415 -44.71875 2.625 C-32.22787419 -7.80672676 -13.52711487 -9.02605718 0 0 Z M-31.20703125 13.52734375 C-33.78428907 16.94716663 -35.16548747 20.36116862 -36.20703125 24.52734375 C-26.30703125 24.52734375 -16.40703125 24.52734375 -6.20703125 24.52734375 C-7.04765184 17.40154973 -7.04765184 17.40154973 -11.20703125 12.52734375 C-17.30854162 8.86643753 -25.53350549 9.4371275 -31.20703125 13.52734375 Z " fill="#06283D" transform="translate(467.20703125,60.47265625)"/>
<path d="M0 0 C0.70705078 0.00563965 1.41410156 0.0112793 2.14257812 0.01708984 C12.37593961 0.25436475 19.51847229 3.56984855 26.69140625 10.8359375 C31.58946448 16.83057593 32.82286242 24.60535128 33.5625 32.125 C33.09199471 36.124295 32.25705177 38.8409938 30.1875 42.3125 C24.75509081 45.3046826 20.31292773 45.72468367 14.19140625 45.60546875 C13.35786118 45.60122391 12.5243161 45.59697906 11.66551208 45.59260559 C9.02666689 45.57593314 6.38861084 45.53830358 3.75 45.5 C1.95118297 45.48493833 0.15235387 45.47125253 -1.64648438 45.45898438 C-6.03545615 45.42606728 -10.42384469 45.37436567 -14.8125 45.3125 C-14.52427017 46.91800229 -14.22694097 48.52187278 -13.92578125 50.125 C-13.6788855 51.46498047 -13.6788855 51.46498047 -13.42700195 52.83203125 C-12.60377815 56.15501648 -11.33002895 58.01075924 -8.8125 60.3125 C-2.42396856 63.44021852 5.30152398 63.53350339 12.046875 61.4140625 C13.71743536 60.70027762 15.38086928 59.9694799 17.03515625 59.21875 C19.9467712 57.99280686 22.08301244 57.72116904 25.1875 58.3125 C27.5625 59.9375 27.5625 59.9375 29.1875 62.3125 C29.7955594 65.88484896 29.52582046 67.68199369 27.8125 70.875 C20.2526225 77.89488625 9.8238173 80.86082879 -0.36328125 80.55859375 C-12.59988471 79.32907857 -21.09034393 74.7186273 -29.3046875 65.73046875 C-34.19203669 57.8929839 -34.27682486 49.83431134 -34.1875 40.8125 C-34.19910156 39.64074219 -34.21070313 38.46898437 -34.22265625 37.26171875 C-34.18515181 26.12289925 -32.00901371 18.23075173 -24.5625 9.75 C-17.20961509 3.2326702 -9.94618032 -0.08280597 0 0 Z M-12.625 22.1875 C-14.24035104 24.79728939 -14.24035104 24.79728939 -14.8125 30.3125 C-5.2425 30.3125 4.3275 30.3125 14.1875 30.3125 C14.43551593 24.6791811 14.43551593 24.6791811 12.1875 20.3125 C7.77363372 16.34002035 3.19253896 15.96108508 -2.5625 16.02734375 C-6.94789059 16.5831311 -9.65538522 19.11548471 -12.625 22.1875 Z " fill="#06283D" transform="translate(772.8125,54.6875)"/>
<path d="M0 0 C8.59588034 5.23763318 13.4326555 11.61959739 16.1796875 21.328125 C16.4453125 24.8359375 16.4453125 24.8359375 16.4296875 28.453125 C16.43742188 30.25136719 16.43742188 30.25136719 16.4453125 32.0859375 C16.04044177 37.02774197 16.04044177 37.02774197 14.1796875 39.328125 C8.67984141 42.22023572 4.3346938 42.74088471 -1.81640625 42.62109375 C-2.64995132 42.61684891 -3.4834964 42.61260406 -4.34230042 42.60823059 C-6.98114561 42.59155814 -9.61920166 42.55392858 -12.2578125 42.515625 C-14.05662953 42.50056333 -15.85545863 42.48687753 -17.65429688 42.47460938 C-22.04326865 42.44169228 -26.43165719 42.38999067 -30.8203125 42.328125 C-30.694174 43.77805975 -30.55816923 45.2271386 -30.41796875 46.67578125 C-30.34328369 47.48281494 -30.26859863 48.28984863 -30.19165039 49.12133789 C-29.73494678 51.83543644 -28.66660765 53.32128245 -26.8203125 55.328125 C-26.8203125 55.988125 -26.8203125 56.648125 -26.8203125 57.328125 C-18.56206441 60.45624928 -9.52170584 60.8323567 -1.3203125 57.328125 C-0.53398438 56.9671875 0.25234375 56.60625 1.0625 56.234375 C3.95767903 54.99511018 6.08736615 54.73911141 9.1796875 55.328125 C11.5546875 56.953125 11.5546875 56.953125 13.1796875 59.328125 C13.7877469 62.90047396 13.51800796 64.69761869 11.8046875 67.890625 C4.49545143 74.67777278 -5.08753656 77.24838304 -14.8828125 77.578125 C-25.73853231 76.88887295 -36.09624728 73.23181964 -43.8203125 65.328125 C-49.24843252 56.9794404 -50.06044771 50.18962356 -50.11547852 40.40649414 C-50.12693386 38.99167834 -50.14728245 37.57690352 -50.17700195 36.16235352 C-50.42524752 24.33393751 -49.17244501 14.96223035 -40.8125 6.08203125 C-30.00929548 -3.42902528 -13.12521883 -6.27535715 0 0 Z M-28.0703125 18.640625 C-30.28563998 21.6504468 -30.28563998 21.6504468 -30.8203125 27.328125 C-21.2503125 27.328125 -11.6803125 27.328125 -1.8203125 27.328125 C-2.08967054 20.05120106 -2.08967054 20.05120106 -4.125 17.48828125 C-12.40089099 11.70339227 -20.78978728 11.15786297 -28.0703125 18.640625 Z " fill="#06283D" transform="translate(626.8203125,57.671875)"/>
<path d="M0 0 C7.01918832 5.49836419 10.588258 12.78523754 11.734375 21.52734375 C12.0841581 28.2706733 12.04715581 35.03506946 12.08447266 41.78588867 C12.10108852 43.99042272 12.12845162 46.19490168 12.16650391 48.39916992 C12.22120701 51.58931199 12.24312886 54.77820251 12.2578125 57.96875 C12.28048187 58.95218887 12.30315125 59.93562775 12.32650757 60.9488678 C12.31210335 65.60481513 12.27453101 67.80552372 9.41650391 71.62475586 C6.026707 74.02933326 3.88431419 74.52734375 -0.265625 74.52734375 C-4.28081563 73.01217747 -5.86930853 72.12181845 -8.265625 68.52734375 C-8.52391052 66.41592407 -8.52391052 66.41592407 -8.53686523 63.95166016 C-8.54705185 63.02704987 -8.55723846 62.10243958 -8.56773376 61.14981079 C-8.56987381 60.15291229 -8.57201385 59.15601379 -8.57421875 58.12890625 C-8.5993789 56.01952849 -8.62477692 53.91015355 -8.65039062 51.80078125 C-8.67913785 48.47396577 -8.70315402 45.14719939 -8.72192383 41.8203125 C-8.74358015 38.6104176 -8.78302129 35.40110111 -8.82421875 32.19140625 C-8.82433456 31.19855621 -8.82445038 30.20570618 -8.8245697 29.18276978 C-8.89639584 24.17001587 -8.94926504 20.5690149 -12.265625 16.52734375 C-16.26517512 12.90275145 -20.5237703 13.08605235 -25.671875 13.23828125 C-29.99411149 13.71997628 -32.16950205 15.31377906 -35.015625 18.46484375 C-37.09511846 21.89600796 -37.38977061 25.08872018 -37.4074707 29.04882812 C-37.41450516 29.93654907 -37.42153961 30.82427002 -37.42878723 31.7388916 C-37.43295151 32.69001831 -37.43711578 33.64114502 -37.44140625 34.62109375 C-37.4645943 36.64063554 -37.48871121 38.66016684 -37.51367188 40.6796875 C-37.54885128 43.85961035 -37.57817464 47.03914403 -37.59155273 50.21923828 C-37.6070003 53.29116565 -37.64717586 56.3619638 -37.69140625 59.43359375 C-37.68949783 60.38472046 -37.68758942 61.33584717 -37.68562317 62.3157959 C-37.80755192 68.87932295 -37.80755192 68.87932295 -40.08666992 72.10351562 C-43.16497909 74.11502252 -45.61325478 74.39919041 -49.265625 74.52734375 C-53.33803839 73.5092404 -55.05957925 72.04468734 -57.265625 68.52734375 C-57.64657593 66.32931519 -57.64657593 66.32931519 -57.65380859 63.91748047 C-57.66326508 63.00908417 -57.67272156 62.10068787 -57.6824646 61.1647644 C-57.67639191 60.18871246 -57.67031921 59.21266052 -57.6640625 58.20703125 C-57.66693268 57.19319366 -57.66980286 56.17935608 -57.67276001 55.13479614 C-57.67480109 52.9879704 -57.66926818 50.84112608 -57.65673828 48.69433594 C-57.6407854 45.43511377 -57.65653411 42.17715064 -57.67578125 38.91796875 C-57.67379688 36.82682021 -57.6699492 34.73567245 -57.6640625 32.64453125 C-57.67013519 31.68062469 -57.67620789 30.71671814 -57.6824646 29.72360229 C-57.5813934 19.81248895 -55.49343964 11.16396854 -48.6171875 3.75 C-36.03836072 -8.3924185 -14.51914623 -9.43744505 0 0 Z " fill="#06283D" transform="translate(166.265625,60.47265625)"/>
<path d="M0 0 C2.8100346 1.79363911 4.50940468 3.01880935 6 6 C6.10795207 7.48989103 6.1562244 8.9843314 6.17358398 10.47802734 C6.18707382 11.40594086 6.20056366 12.33385437 6.21446228 13.28988647 C6.22490067 14.29508331 6.23533905 15.30028015 6.24609375 16.3359375 C6.27903106 18.45312915 6.31224273 20.57031655 6.34570312 22.6875 C6.39314022 26.03414997 6.4375678 29.38078254 6.47680664 32.72753906 C6.51649828 35.95135603 6.5680504 39.17481648 6.62109375 42.3984375 C6.6295079 43.39958588 6.63792206 44.40073425 6.64659119 45.43222046 C6.66323318 46.36643829 6.67987518 47.30065613 6.69702148 48.26318359 C6.70732895 49.08321869 6.71763641 49.90325378 6.72825623 50.74813843 C7.16246022 54.34626057 8.26726238 56.4004874 11.0625 58.6875 C16.48086771 61.10847281 21.6760922 61.7221598 27.375 59.875 C30.9336766 58.32559607 32.48613018 56.6510978 34 53 C34.86462132 50.09348914 35.12417477 47.50631645 35.12597656 44.47851562 C35.12978333 43.59079468 35.13359009 42.70307373 35.13751221 41.78845215 C35.13853943 40.83732544 35.13956665 39.88619873 35.140625 38.90625 C35.15894388 36.88670739 35.17851333 34.8671758 35.19921875 32.84765625 C35.22824899 29.66761523 35.25000179 26.4882879 35.25048828 23.30810547 C35.25381563 20.23601131 35.2883106 17.16555965 35.328125 14.09375 C35.3210553 13.14262329 35.3139856 12.19149658 35.30670166 11.21154785 C35.42865204 4.61665079 35.42865204 4.61665079 38.41088867 1.39794922 C42.36392107 -0.73642735 44.54047966 -0.42471622 49 0 C52.4203866 1.17013226 52.91540482 1.87310723 55 5 C55.26742554 7.14697266 55.26742554 7.14697266 55.29052734 9.6640625 C55.30328705 10.60934814 55.31604675 11.55463379 55.32919312 12.52856445 C55.33141876 13.55038818 55.33364441 14.57221191 55.3359375 15.625 C55.3459227 17.21090942 55.3459227 17.21090942 55.35610962 18.82885742 C55.36624497 21.07159689 55.37092637 23.31436656 55.37060547 25.55712891 C55.3749479 28.9591796 55.41117372 32.35990033 55.44921875 35.76171875 C55.45509314 37.94530809 55.45905836 40.12890356 55.4609375 42.3125 C55.47530853 43.31812988 55.48967957 44.32375977 55.50448608 45.35986328 C55.44301144 55.05575248 53.01621484 64.05844739 46.1875 71.2109375 C40.18059631 76.12372659 32.81186406 79.70521268 25 80 C24.34 80.04898438 23.68 80.09796875 23 80.1484375 C12.4518394 80.63817353 3.3424873 77.69096445 -4.5625 70.75 C-12.73158655 61.53359466 -14.30677553 52.53621031 -14.3359375 40.453125 C-14.3425943 39.47889587 -14.3492511 38.50466675 -14.35610962 37.50091553 C-14.36617035 35.45717237 -14.3709287 33.4133968 -14.37060547 31.36962891 C-14.37500764 28.24457448 -14.41147597 25.12090172 -14.44921875 21.99609375 C-14.45508253 20.00260896 -14.45905486 18.00911752 -14.4609375 16.015625 C-14.47530853 15.08534485 -14.48967957 14.1550647 -14.50448608 13.19659424 C-14.47441194 8.93709168 -14.3883367 6.62488444 -12.09619141 2.93652344 C-8.43239506 -0.44819968 -4.83984274 -0.6953797 0 0 Z " fill="#06283D" transform="translate(340,55)"/>
<path d="M0 0 C5.60540669 3.41029169 5.60540669 3.41029169 6.55296326 7.22773743 C6.75834471 10.01978978 6.77811953 12.75927357 6.734375 15.55859375 C6.74333801 16.58050308 6.75230103 17.60241241 6.76153564 18.6552887 C6.78562228 21.91661593 6.76972919 25.17616858 6.75 28.4375 C6.75144416 31.69479349 6.76136356 34.95176712 6.78131104 38.20899963 C6.79147665 40.23350122 6.78984024 42.25810597 6.77484131 44.28257751 C6.77753445 49.22657192 6.90617193 53.41197123 9 58 C13.84717281 61.41600325 20.10137095 61.39219332 25.765625 60.57421875 C28.99406539 59.74453215 30.79515515 58.48045046 33 56 C35.71155518 51.13387063 35.26146055 46.0339934 35.23828125 40.625 C35.25369486 38.56770169 35.26999804 36.51040989 35.28710938 34.453125 C35.30358701 31.22055681 35.31247483 27.98846629 35.30541992 24.75585938 C35.30280257 21.62835913 35.33089371 18.5023069 35.36328125 15.375 C35.35307449 14.41029785 35.34286774 13.4455957 35.33235168 12.45166016 C35.40048906 7.77866945 35.4706489 5.68314434 38.41088867 1.88867188 C41.67613083 -0.49321529 43.18807211 -0.61645661 47.06640625 -0.3671875 C49.857054 0.16275369 51.78342892 1.25361066 54 3 C55.1917143 5.3834286 55.14555193 6.88973647 55.17700195 9.55053711 C55.19625481 10.96857887 55.19625481 10.96857887 55.21589661 12.41526794 C55.22328354 13.44225296 55.23067047 14.46923798 55.23828125 15.52734375 C55.246353 16.58603165 55.25442474 17.64471954 55.26274109 18.73548889 C55.27659572 20.98420571 55.28731168 23.23294367 55.29516602 25.48168945 C55.31227433 28.89250847 55.35613618 32.30233166 55.40039062 35.71289062 C55.41052682 37.90103456 55.41904001 40.08918672 55.42578125 42.27734375 C55.44328934 43.28611069 55.46079742 44.29487762 55.47883606 45.33421326 C55.44715886 55.87748638 52.50278356 64.51026975 45.1328125 72.125 C37.82930034 78.54567003 27.98169408 80.53385186 18.41796875 80.24609375 C9.59184492 79.34779682 2.48442102 77.16527725 -4 71 C-4.56589844 70.46246094 -5.13179687 69.92492187 -5.71484375 69.37109375 C-12.85167198 61.85037745 -13.46685098 53.06709775 -13.46875 43.10546875 C-13.47636353 41.99569168 -13.48397705 40.88591461 -13.49182129 39.74250793 C-13.5025697 37.41210165 -13.50549696 35.08164739 -13.50097656 32.7512207 C-13.49999804 29.180348 -13.54181103 25.61158214 -13.5859375 22.04101562 C-13.59114041 19.7708378 -13.59383276 17.50065253 -13.59375 15.23046875 C-13.61014526 14.16378464 -13.62654053 13.09710052 -13.64343262 11.99809265 C-13.57466115 4.66890704 -13.57466115 4.66890704 -10.70898438 1.33325195 C-7.14088182 -0.42282304 -3.82142795 -1.11256763 0 0 Z " fill="#06283D" transform="translate(34,55)"/>
<path d="M0 0 C4.6350554 3.84884209 6.25840065 7.415043 7.97265625 12.9765625 C8.22244736 13.74245697 8.47223846 14.50835144 8.729599 15.29745483 C9.52158752 17.73561276 10.29260334 20.17978695 11.0625 22.625 C11.83868887 25.0413686 12.6191506 27.45632999 13.39974976 29.87127686 C13.90265316 31.42897155 14.40368166 32.98727293 14.90274048 34.54620361 C16.78806824 40.41975228 18.81608102 46.23010046 21 52 C21.37286133 50.8354126 21.74572266 49.6708252 22.12988281 48.47094727 C23.52635322 44.11384248 24.9294525 39.75889554 26.33447266 35.40454102 C26.93944852 33.52653461 27.5426712 31.64796243 28.14404297 29.76879883 C29.01319473 27.05396077 29.88881798 24.34128021 30.765625 21.62890625 C31.02933899 20.80040665 31.29305298 19.97190704 31.5647583 19.11830139 C36.09860004 5.16366203 36.09860004 5.16366203 39.8125 0.9375 C43.09731593 -0.47027826 45.46062146 -0.42716638 49 0 C52.375 1.5625 52.375 1.5625 55 4 C56.70686882 10.173905 55.2619507 14.18034438 52.9140625 19.84375 C52.58162033 20.68267288 52.24917816 21.52159576 51.90666199 22.38594055 C50.82824522 25.09711713 49.72733823 27.79847189 48.625 30.5 C47.8797014 32.35580145 47.13580785 34.21216779 46.39331055 36.0690918 C45.28870505 38.82944567 44.18242046 41.58902885 43.06907654 44.34587097 C41.0152614 49.43343069 39.01949812 54.53397999 37.10546875 59.67578125 C36.7069873 60.73925781 36.30850586 61.80273438 35.89794922 62.8984375 C35.19759634 64.77864711 34.50706687 66.66255905 33.82861328 68.55078125 C32.0271111 73.31209596 30.53919326 76.27504986 26 79 C21.8886149 80.14205142 19.45525151 80.11574191 15.3125 79.0625 C9.02361729 75.14678058 7.11417763 67.03998855 4.57421875 60.3203125 C4.26353958 59.50867645 3.95286041 58.69704041 3.63276672 57.86080933 C2.647171 55.28365296 1.66714726 52.70442262 0.6875 50.125 C-0.27863865 47.59237994 -1.24593698 45.06020681 -2.21383667 42.52825928 C-2.85415427 40.85052601 -3.49244674 39.17201842 -4.12869263 37.49273682 C-5.72020042 33.30045495 -7.34451403 29.1268007 -9.04052734 24.97558594 C-9.36643356 24.16862274 -9.69233978 23.36165955 -10.02812195 22.53024292 C-10.64275867 21.01321397 -11.26678916 19.49994137 -11.9021759 17.9914856 C-13.70228893 13.52171202 -14.47801619 9.90224108 -14 5 C-10.32833684 0.34922667 -5.88748799 -1.42148359 0 0 Z " fill="#06283D" transform="translate(671,55)"/>
<path d="M0 0 C5.55468803 3.39751081 5.55468803 3.39751081 6.55070877 6.98176765 C6.76843992 9.44512034 6.78790939 11.8439321 6.74462891 14.31665039 C6.75193024 15.24729813 6.75923157 16.17794586 6.76675415 17.13679504 C6.78294445 20.20782861 6.75577067 23.27674441 6.7265625 26.34765625 C6.72552509 28.48327127 6.72656129 30.61888821 6.72958374 32.75450134 C6.7294044 37.22765661 6.70856663 41.70009018 6.67236328 46.1730957 C6.62696032 51.90903747 6.6259062 57.64392615 6.63939857 63.37999821 C6.64607834 67.7886645 6.63281839 72.19709029 6.61314011 76.60571098 C6.60543814 78.72082702 6.60313885 80.83596981 6.6063118 82.95109749 C6.60705286 85.90549925 6.58182535 88.85854584 6.54931641 91.81274414 C6.55674866 93.125896 6.55674866 93.125896 6.56433105 94.46557617 C6.46083078 100.35313797 6.46083078 100.35313797 4.20785522 103.51560974 C0.98035206 105.68553203 -2.19005552 106.18317041 -6 106 C-9.44639302 104.85120233 -11.36405185 104.14852763 -13.14689636 100.92869568 C-14.28179324 97.03260683 -14.28689584 93.28757442 -14.2746582 89.26586914 C-14.27976913 88.39695541 -14.28488007 87.52804169 -14.29014587 86.63279724 C-14.30402067 83.76684641 -14.30308674 80.90113663 -14.30078125 78.03515625 C-14.30466923 76.03885306 -14.30900411 74.04255069 -14.31376648 72.04624939 C-14.32122406 67.86422035 -14.32094066 63.68227574 -14.31567383 59.50024414 C-14.30987866 54.14581375 -14.32681367 48.79172921 -14.3500185 43.437356 C-14.3647625 39.31520066 -14.36562664 35.1931285 -14.36250877 31.07095146 C-14.36302161 29.09702303 -14.36825228 27.1230899 -14.37832069 25.14918709 C-14.39068113 22.38707229 -14.38389584 19.62562973 -14.37231445 16.86352539 C-14.37995819 16.0513858 -14.38760193 15.23924622 -14.39547729 14.40249634 C-14.3504645 9.53630008 -13.65348534 6.23587107 -11 2 C-7.64574965 -0.63548241 -4.12382354 -0.49770284 0 0 Z " fill="#06283D" transform="translate(552,29)"/>
<path d="M0 0 C0.69029297 -0.020625 1.38058594 -0.04125 2.09179688 -0.0625 C7.71337987 -0.10512812 11.28246999 1.48931432 15.9375 4.4375 C17.48240812 6.92651864 17.47544321 9.33783491 17.55859375 12.21484375 C16.78941435 15.37029627 15.73718852 16.38545305 13.0625 18.25 C9.90133405 18.85566687 6.77476911 18.90116211 3.5625 18.9375 C1.8644976 18.97975798 0.16657119 19.02521767 -1.53125 19.07421875 C-2.65563477 19.09101685 -2.65563477 19.09101685 -3.80273438 19.1081543 C-5.95601789 19.25123043 -7.86520781 19.66240073 -9.9375 20.25 C-10.8280822 23.30780731 -11.06177205 26.03454444 -11.06347656 29.21459961 C-11.06728333 30.19919662 -11.07109009 31.18379364 -11.07501221 32.19822693 C-11.07603943 33.25558548 -11.07706665 34.31294403 -11.078125 35.40234375 C-11.09644655 37.6451925 -11.11601625 39.88803134 -11.13671875 42.13085938 C-11.16573055 45.66415217 -11.18750128 49.19680478 -11.18798828 52.73022461 C-11.19131834 56.14234115 -11.22583507 59.55298289 -11.265625 62.96484375 C-11.2585553 64.02017807 -11.2514856 65.07551239 -11.24420166 66.16282654 C-11.3657705 73.47787727 -11.3657705 73.47787727 -14.26464844 77.39282227 C-17.65192449 79.74640365 -19.81726457 80.25 -23.9375 80.25 C-29 78.1875 -29 78.1875 -30.9375 76.25 C-31.05725293 74.55452122 -31.10766145 72.85409194 -31.13037109 71.15454102 C-31.14643402 70.06573135 -31.16249695 68.97692169 -31.17904663 67.8551178 C-31.22349288 62.83611572 -31.26461818 57.81724898 -31.28759766 52.7980957 C-31.3040991 50.15705518 -31.33131115 47.51605824 -31.36962891 44.87524414 C-31.42466365 41.06372943 -31.44632026 37.25326598 -31.4609375 33.44140625 C-31.48360687 32.27122452 -31.50627625 31.10104279 -31.52963257 29.895401 C-31.50650836 20.83099643 -29.31297763 14.44653976 -23.625 7.375 C-16.26683117 1.55691302 -9.27246366 0.06887624 0 0 Z " fill="#06283D" transform="translate(854.9375,54.75)"/>
<path d="M0 0 C2.50160818 1.87620613 3.61945652 3.23891303 5 6 C5.10709243 8.09731983 5.14888492 10.19807922 5.16113281 12.2980957 C5.16609772 12.94384552 5.17106262 13.58959534 5.17617798 14.25491333 C5.19080464 16.39521342 5.19760303 18.53543935 5.203125 20.67578125 C5.20887685 22.16310122 5.21463458 23.65042116 5.22039795 25.13774109 C5.23090992 28.25906724 5.23675103 31.38036762 5.24023438 34.50170898 C5.24571401 38.49656282 5.2697295 42.49107494 5.29820633 46.48582172 C5.31685525 49.55965663 5.32203954 52.63340968 5.32357025 55.70729637 C5.32659316 57.17966768 5.33460954 58.65203768 5.34775543 60.12435341 C5.36486085 62.18773783 5.36292514 64.25029363 5.35644531 66.3137207 C5.36009094 67.48683304 5.36373657 68.65994537 5.36749268 69.86860657 C4.88635419 73.96837231 3.52973869 76.75354626 0.3125 79.375 C-3.25385575 80.33887993 -6.46344399 80.023931 -10 79 C-12.38312703 77.10571954 -13.6500559 75.69988821 -15 73 C-15.10700566 70.93330492 -15.14887736 68.86312828 -15.16113281 66.79370117 C-15.17074036 65.48862106 -15.1803479 64.18354095 -15.19024658 62.83891296 C-15.19509481 61.40693333 -15.19937358 59.97495168 -15.203125 58.54296875 C-15.20887694 57.07806903 -15.21463467 55.61316933 -15.22039795 54.14826965 C-15.23090971 51.0740219 -15.23675094 47.99980031 -15.24023438 44.92553711 C-15.24571379 40.99121511 -15.26972889 37.05724014 -15.29820633 33.12302685 C-15.31685668 30.09551494 -15.32203962 27.06808612 -15.32357025 24.04052162 C-15.32659287 22.59047871 -15.33460826 21.14043713 -15.34775543 19.69045067 C-15.36486099 17.65853119 -15.36108435 15.62646861 -15.35644531 13.59448242 C-15.36009094 12.43913498 -15.36373657 11.28378754 -15.36749268 10.09342957 C-14.95470354 6.61870965 -14.09255228 4.78070616 -12 2 C-7.9983959 -0.66773607 -4.70568852 -0.71478813 0 0 Z " fill="#06283D" transform="translate(213,55)"/>
<path d="M0 0 C3.28931514 1.72689045 3.8140267 2.4420801 5 6 C5.38887761 10.19987818 5.45908323 12.29607238 3.125 15.875 C0.42552582 18.57447418 -0.41758921 18.94399896 -4.25 19.3125 C-8.8135559 18.93220368 -10.71759375 18.20425372 -14 15 C-15.07438448 11.93686126 -15.36210914 9.22449571 -15 6 C-11.14987971 -0.3726129 -6.97273349 -0.70719895 0 0 Z " fill="#06283D" transform="translate(213,28)"/>
</svg>
