<?xml version="1.0" encoding="UTF-8"?>
<svg version="1.1" xmlns="http://www.w3.org/2000/svg" width="339" height="311">
<path d="M0 0 C3.47631181 3.47631181 4.74667349 5.15354591 6.6875 9.38671875 C12.26879423 21.07176968 12.26879423 21.07176968 22.44091797 28.16992188 C30.62971468 29.39469209 38.80027746 28.96048252 47 28 C47.27473145 27.25741943 47.54946289 26.51483887 47.83251953 25.74975586 C48.91254798 23.20597492 50.07135647 21.23597215 51.6796875 19.00390625 C52.45505859 17.91819336 52.45505859 17.91819336 53.24609375 16.81054688 C54.05240234 15.69776367 54.05240234 15.69776367 54.875 14.5625 C55.93560136 13.08514166 56.99551048 11.60728609 58.0546875 10.12890625 C58.55709961 9.42910645 59.05951172 8.72930664 59.57714844 8.00830078 C61.44277007 5.37504692 63.22976207 2.69811626 65 0 C67.89619259 0.60248146 70.79194539 1.20696576 73.6875 1.8125 C74.48478516 1.97814453 75.28207031 2.14378906 76.10351562 2.31445312 C83.09196533 3.77843666 90.04703113 5.37652316 97 7 C96.9779248 8.05912598 96.95584961 9.11825195 96.93310547 10.20947266 C96.86411974 14.15730438 96.86127968 18.10294684 96.87792969 22.05126953 C96.87598866 23.75646217 96.85635234 25.46173347 96.81835938 27.16650391 C96.22531629 36.93328059 96.22531629 36.93328059 100.13256836 45.32250977 C102.69942847 46.81471555 105.24550461 47.90512595 108 49 C109.64158277 50.52314246 111.25524551 52.07824073 112.8125 53.6875 C115.21847849 55.81512701 115.21847849 55.81512701 118 57 C122.13905018 56.49697144 125.46403776 54.87465215 129.13623047 52.95117188 C131.87672428 51.55256513 134.69357058 50.34725579 137.51708984 49.12719727 C138.94770963 48.50779844 140.37399736 47.878282 141.79541016 47.23803711 C146.78162063 45 146.78162063 45 149 45 C149.33 46.32 149.66 47.64 150 49 C149.38705078 49.36649658 148.77410156 49.73299316 148.14257812 50.1105957 C136.67869944 56.98184909 125.3144579 63.91247507 114.375 71.59765625 C113.5396875 72.18184326 113.5396875 72.18184326 112.6875 72.77783203 C111.49827998 73.63912188 110.33327857 74.53434705 109.1875 75.45263672 C104.6571563 78.99807003 104.6571563 78.99807003 101.33984375 79.0078125 C98.75514123 77.89453495 96.78977493 76.59660246 94.5625 74.875 C74.13915483 60.17501115 48.16732845 54.35857954 23.32421875 58.19140625 C4.18871437 61.59909881 -13.74661668 69.59897848 -28 83 C-28.79664062 83.72960937 -29.59328125 84.45921875 -30.4140625 85.2109375 C-46.16629955 100.22561161 -57.83387466 122.96079218 -59.17700195 144.88989258 C-59.46750535 159.13381799 -59.51529653 172.39784504 -55 186 C-54.79101074 186.6379248 -54.58202148 187.27584961 -54.36669922 187.93310547 C-49.5247933 202.32825498 -41.54647899 214.11902447 -31 225 C-30.4740625 225.59941406 -29.948125 226.19882813 -29.40625 226.81640625 C-15.09565127 242.55076353 8.79401909 252.28289258 29.75 253.91015625 C30.4925 253.93980469 31.235 253.96945313 32 254 C32.969375 254.03996094 33.93875 254.07992187 34.9375 254.12109375 C59.6169114 254.62536057 82.82076528 246.42540424 102 231 C102.680625 230.48308594 103.36125 229.96617187 104.0625 229.43359375 C122.72118145 214.42388831 133.51478771 190.03456226 136.625 166.75 C138.51746088 146.8963649 134.77050801 127.92351302 125.91796875 110.13671875 C125 108 125 108 125 105 C127.2722168 103.1340332 127.2722168 103.1340332 130.44921875 101.05078125 C131.01768021 100.67447067 131.58614166 100.2981601 132.17182922 99.91044617 C134.00413247 98.70129992 135.84566074 97.50705675 137.6875 96.3125 C138.87885465 95.52760181 140.0696167 94.74180337 141.25976562 93.95507812 C144.22535903 92.00102858 147.20640497 90.07250513 150.19720459 88.1572876 C151.41724299 87.37409539 152.634669 86.58682116 153.84967041 85.7958374 C155.62905848 84.63871286 157.41667061 83.49552037 159.20703125 82.35546875 C160.77094604 81.35036255 160.77094604 81.35036255 162.36645508 80.32495117 C163.2355249 79.88771729 164.10459473 79.4504834 165 79 C165.99 79.33 166.98 79.66 168 80 C167.58637207 80.43344727 167.17274414 80.86689453 166.74658203 81.31347656 C164.86782685 83.2877259 162.9963774 85.268757 161.125 87.25 C160.47402344 87.93191406 159.82304687 88.61382812 159.15234375 89.31640625 C158.21455078 90.31220703 158.21455078 90.31220703 157.2578125 91.328125 C156.6817627 91.9355957 156.10571289 92.54306641 155.51220703 93.16894531 C153.95709638 95.05194982 152.89016564 96.72642559 152 99 C152.75205874 101.28771513 152.75205874 101.28771513 154.1875 103.5625 C157.44775656 109.56636044 160 116.08831856 160 123 C161.1859375 123.24234375 162.371875 123.4846875 163.59375 123.734375 C171.8017646 125.42726736 179.98970294 127.17057732 188.125 129.1875 C188.80498047 129.35411133 189.48496094 129.52072266 190.18554688 129.69238281 C194.87590956 130.87590956 194.87590956 130.87590956 196 132 C196.08846834 134.52068181 196.11534524 137.01454417 196.09765625 139.53515625 C196.09664917 140.20252808 196.09564209 140.8698999 196.09460449 141.55749512 C196.08935808 144.0591808 196.07539691 146.56084206 196.0625 149.0625 C196.041875 154.651875 196.02125 160.24125 196 166 C179.665 170.455 179.665 170.455 163 175 C162.01 179.95 161.02 184.9 160 190 C157.6875 195.125 157.6875 195.125 156.57421875 197.0703125 C155.81650746 199.0461306 155.81650746 199.0461306 156.50390625 201.28515625 C158.59950147 205.0878682 161.35009661 208.10029312 164.25 211.3125 C168.74895716 216.38905523 173.05307422 221.47430391 177 227 C176.52691406 227.825 176.05382812 228.65 175.56640625 229.5 C170.33095813 238.64062133 165.15409986 247.81329424 160 257 C152.75423446 254.72578162 145.87948128 251.88273904 138.9375 248.8125 C137.88111328 248.34908203 136.82472656 247.88566406 135.73632812 247.40820312 C133.15598036 246.2756523 130.57727399 245.13952397 128 244 C127.31035156 244.65226563 126.62070313 245.30453125 125.91015625 245.9765625 C124.97042969 246.85054687 124.03070313 247.72453125 123.0625 248.625 C122.14597656 249.48351562 121.22945312 250.34203125 120.28515625 251.2265625 C118.434489 252.95409046 116.9932111 254.00292152 114.65014648 255.01123047 C111.69137786 256.38692442 110.05107101 257.43326957 108 260 C106.31826191 266.06523491 106.83333365 272.64364088 106.9375 278.875 C106.93442351 280.63022025 106.92730458 282.38543836 106.91601562 284.140625 C106.89722266 288.42847239 106.93373358 292.71265767 107 297 C89.48093502 303.85474191 89.48093502 303.85474191 82.5625 306.4375 C81.73878906 306.74558594 80.91507813 307.05367188 80.06640625 307.37109375 C78 308 78 308 75 308 C73.41967773 305.52148438 73.41967773 305.52148438 71.68359375 302.09375 C64.98562309 288.5742227 64.98562309 288.5742227 53.60888672 279.72119141 C45.99481273 278.62812802 38.50389426 279.46974966 31 281 C30.72905518 281.73879395 30.45811035 282.47758789 30.17895508 283.23876953 C29.05497321 285.87124725 27.82573365 287.8819771 26.13671875 290.1796875 C25.57919922 290.94410156 25.02167969 291.70851563 24.44726562 292.49609375 C23.57618164 293.67365234 23.57618164 293.67365234 22.6875 294.875 C21.54545202 296.43480732 20.40352329 297.99470196 19.26171875 299.5546875 C18.71306152 300.30073242 18.1644043 301.04677734 17.59912109 301.81542969 C15.37208709 304.85779613 13.1840938 307.92669728 11 311 C0.56634057 308.6252688 -9.7352434 306.03270641 -20 303 C-20.0292814 298.52084729 -20.04689296 294.04171958 -20.0625 289.5625 C-20.07087891 288.30244141 -20.07925781 287.04238281 -20.08789062 285.74414062 C-20.10531376 279.0710797 -19.91378066 272.61231832 -19 266 C-20.52560547 265.64615234 -20.52560547 265.64615234 -22.08203125 265.28515625 C-26.23258207 264.09943383 -29.26653041 262.00627076 -32.6875 259.4375 C-37.39929104 255.71710088 -37.39929104 255.71710088 -43 254 C-46.17088316 254.91184915 -46.17088316 254.91184915 -49.59375 256.37890625 C-50.88404097 256.892763 -52.17440789 257.4064291 -53.46484375 257.91992188 C-55.48787366 258.74050139 -57.50871368 259.56608262 -59.52783203 260.39624023 C-61.48232557 261.19520068 -63.44359061 261.97526708 -65.40625 262.75390625 C-66.57478516 263.23158447 -67.74332031 263.7092627 -68.94726562 264.20141602 C-72 265 -72 265 -74.28442383 264.26513672 C-82.39373585 258.28499513 -91.90563367 247.21768336 -96 238 C-94.83151542 236.50932298 -93.66281838 235.0188121 -92.49316406 233.52905273 C-91.49325115 232.25398393 -90.49521879 230.97743828 -89.49902344 229.69946289 C-87.19900969 226.7569727 -84.88007279 223.85965573 -82.453125 221.01953125 C-81.72609375 220.16746094 -80.9990625 219.31539062 -80.25 218.4375 C-79.59515625 217.69371094 -78.9403125 216.94992188 -78.265625 216.18359375 C-76.59824758 213.30685307 -77.24407653 212.17698081 -78 209 C-78.13543213 208.23300781 -78.27086426 207.46601563 -78.41040039 206.67578125 C-80.03535522 196.221872 -80.03535522 196.221872 -85.56005859 187.66455078 C-89.37188657 185.69691746 -93.47076634 185.0399979 -97.67822266 184.40087891 C-101.84920149 183.68071621 -105.87526174 182.42186212 -109.9375 181.25 C-111.4673318 180.83811016 -112.99727027 180.42661616 -114.52734375 180.015625 C-118 179 -118 179 -119 178 C-119.08851529 175.40640678 -119.11525945 172.83960309 -119.09765625 170.24609375 C-119.09553383 169.08292381 -119.09553383 169.08292381 -119.09336853 167.89625549 C-119.08775345 165.40996506 -119.07519846 162.9237634 -119.0625 160.4375 C-119.05748694 158.75586067 -119.0529237 157.07421994 -119.04882812 155.39257812 C-119.03777913 151.26168434 -119.02050445 147.13085724 -119 143 C-111.26967908 140.57509957 -103.53422308 138.26718508 -95.6875 136.25 C-94.41616211 135.91935547 -94.41616211 135.91935547 -93.11914062 135.58203125 C-91.08009524 135.05210985 -89.0401491 134.52565616 -87 134 C-86.15535944 130.62772763 -85.32633353 127.25180079 -84.5 123.875 C-84.26152344 122.92367187 -84.02304688 121.97234375 -83.77734375 120.9921875 C-81.95379826 114.06704013 -81.95379826 114.06704013 -82 107 C-83.65345785 104.47844568 -83.65345785 104.47844568 -86 102.25 C-91.47243221 96.53550127 -96.60504426 90.59243361 -101 84 C-100.70210401 79.78871452 -98.96678937 77.01447774 -96.65625 73.55078125 C-95.98722656 72.53822266 -95.31820312 71.52566406 -94.62890625 70.48242188 C-93.92636719 69.43634766 -93.22382812 68.39027344 -92.5 67.3125 C-91.11389726 65.22571596 -89.72844679 63.13849848 -88.34375 61.05078125 C-87.41852539 59.66886597 -87.41852539 59.66886597 -86.47460938 58.2590332 C-84.99736576 56.0900775 -84.99736576 56.0900775 -84 54 C-76.00175545 54.61612725 -68.91831459 57.9777717 -61.54101562 60.9375 C-60.50267578 61.34226563 -59.46433594 61.74703125 -58.39453125 62.1640625 C-57.45456299 62.53998535 -56.51459473 62.9159082 -55.54614258 63.30322266 C-52.81902855 64.04952465 -51.59494106 64.03790575 -49 63 C-46.85132059 61.35792836 -46.85132059 61.35792836 -44.75 59.3125 C-40.32267419 55.15178323 -40.32267419 55.15178323 -37.95507812 54.03808594 C-35.24583609 52.60371025 -33.80454455 51.50785557 -32 49 C-30.8315436 42.87724193 -30.92479427 36.83842548 -31 30.625 C-30.99190357 28.91794773 -30.98022215 27.21090845 -30.96484375 25.50390625 C-30.92836703 21.33340147 -30.96597029 17.17289295 -31 13 C-20.77 8.71 -10.54 4.42 0 0 Z " fill="#FFFFFF" transform="translate(119,0)"/>
<path d="M0 0 C2.79614562 1.76028538 3.75142905 3.0550684 4.80078125 6.203125 C5.29494449 11.36348539 5.42623367 15.79585705 3.30078125 20.578125 C-2.68223856 26.8602958 -10.89832652 30.04606634 -18.65313721 33.64797974 C-41.0552029 44.10597996 -62.13739001 56.74198631 -82.19921875 71.203125 C-82.89547363 71.70263672 -83.59172852 72.20214844 -84.30908203 72.71679688 C-103.23946021 86.3761549 -120.83559975 101.72452326 -135.19921875 120.203125 C-135.98683594 121.18539062 -136.77445312 122.16765625 -137.5859375 123.1796875 C-149.07213958 137.62253148 -158.80782188 153.4783658 -167.1015625 169.953125 C-167.69066406 171.108125 -168.27976562 172.263125 -168.88671875 173.453125 C-169.38558594 174.46890625 -169.88445312 175.4846875 -170.3984375 176.53125 C-172.58965364 179.78242536 -174.78278803 181.31683313 -178.19921875 183.203125 C-184.14343786 184.06599552 -187.21333113 183.05396947 -192.16064453 179.82006836 C-195.73319171 176.98641807 -198.13188197 173.43432624 -200.69921875 169.703125 C-201.91347557 167.99735164 -203.12969746 166.2929758 -204.34765625 164.58984375 C-204.97510742 163.70603027 -205.60255859 162.8222168 -206.24902344 161.91162109 C-209.51494349 157.37580274 -212.92140672 152.94912382 -216.32421875 148.515625 C-217.66837132 146.75681801 -219.01212724 144.99770779 -220.35546875 143.23828125 C-221.32419922 141.97008545 -221.32419922 141.97008545 -222.3125 140.67626953 C-226.57902729 135.08362959 -230.82194317 129.47568846 -234.99511719 123.81298828 C-236.05955374 122.38985474 -237.16189229 120.99524217 -238.26953125 119.60546875 C-241.97560254 114.71862591 -243.03230152 110.89224083 -242.65234375 104.7265625 C-241.98768285 101.02508889 -240.81806109 98.89088424 -238.19921875 96.203125 C-233.60360975 93.80087484 -229.11564561 93.79166526 -224.19921875 95.203125 C-219.04976737 97.52758905 -216.43486855 101.4538403 -213.19921875 105.890625 C-212.05292285 107.42738104 -210.90442511 108.96249675 -209.75390625 110.49609375 C-209.16834961 111.27774902 -208.58279297 112.0594043 -207.97949219 112.86474609 C-205.17725327 116.54547077 -202.25786621 120.12682018 -199.32421875 123.703125 C-195.27937443 128.63542292 -191.29538787 133.59380569 -187.46875 138.69921875 C-186.25221005 140.34120864 -186.25221005 140.34120864 -184.19921875 141.203125 C-183.98910156 140.39488281 -183.77898437 139.58664063 -183.5625 138.75390625 C-181.78924048 134.13530195 -179.21315501 130.42839108 -176.38671875 126.390625 C-175.81211914 125.56111328 -175.23751953 124.73160156 -174.64550781 123.87695312 C-169.19465718 116.07306789 -163.48711892 108.48058423 -157.60400391 100.99853516 C-156.41509238 99.47902606 -155.24801474 97.94247199 -154.0859375 96.40234375 C-143.34345006 82.55981986 -130.12813793 69.80658598 -116.19921875 59.203125 C-114.8782539 58.14566601 -113.55943458 57.08552402 -112.2421875 56.0234375 C-101.36085956 47.31280925 -90.03213324 39.56014368 -78.19921875 32.203125 C-77.52262207 31.78192383 -76.84602539 31.36072266 -76.14892578 30.92675781 C-62.45982498 22.45704128 -48.29895115 14.79017519 -34.07421875 7.265625 C-33.20974121 6.80494629 -32.34526367 6.34426758 -31.45458984 5.86962891 C-21.69932936 0.75034416 -11.18021631 -4.05109081 0 0 Z " fill="#FFFFFF" transform="translate(329.19921875,29.796875)"/>
</svg>
