<svg width="678" height="683" viewBox="0 0 678 683" fill="none" xmlns="http://www.w3.org/2000/svg">
<g filter="url(#filter0_dddi_21945_10825)">
<mask id="mask0_21945_10825" style="mask-type:luminance" maskUnits="userSpaceOnUse" x="53" y="50" width="563" height="563">
<path d="M53.0453 275.272C53.0453 196.547 53.0453 157.184 68.3663 127.115C81.8429 100.665 103.347 79.1609 129.797 65.6843C159.866 50.3633 199.229 50.3633 277.954 50.3633H390.409C469.134 50.3633 508.496 50.3633 538.566 65.6843C565.015 79.1609 586.521 100.665 599.997 127.115C615.318 157.184 615.318 196.547 615.318 275.272V387.727C615.318 466.452 615.318 505.814 599.997 535.884C586.521 562.333 565.015 583.839 538.566 597.315C508.496 612.636 469.134 612.636 390.409 612.636H277.954C199.229 612.636 159.866 612.636 129.797 597.315C103.347 583.839 81.8429 562.333 68.3663 535.884C53.0453 505.814 53.0453 466.452 53.0453 387.727V275.272Z" fill="white"/>
</mask>
<g mask="url(#mask0_21945_10825)">
<path d="M53.0453 275.272C53.0453 196.547 53.0453 157.184 68.3663 127.115C81.8429 100.665 103.347 79.1609 129.797 65.6843C159.866 50.3633 199.229 50.3633 277.954 50.3633H390.409C469.134 50.3633 508.496 50.3633 538.566 65.6843C565.015 79.1609 586.521 100.665 599.997 127.115C615.318 157.184 615.318 196.547 615.318 275.272V387.727C615.318 466.452 615.318 505.814 599.997 535.884C586.521 562.333 565.015 583.839 538.566 597.315C508.496 612.636 469.134 612.636 390.409 612.636H277.954C199.229 612.636 159.866 612.636 129.797 597.315C103.347 583.839 81.8429 562.333 68.3663 535.884C53.0453 505.814 53.0453 466.452 53.0453 387.727V275.272Z" fill="white"/>
<path d="M53.0453 275.272C53.0453 196.547 53.0453 157.184 68.3663 127.115C81.8429 100.665 103.347 79.1609 129.797 65.6843C159.866 50.3633 199.229 50.3633 277.954 50.3633H390.409C469.134 50.3633 508.496 50.3633 538.566 65.6843C565.015 79.1609 586.521 100.665 599.997 127.115C615.318 157.184 615.318 196.547 615.318 275.272V387.727C615.318 466.452 615.318 505.814 599.997 535.884C586.521 562.333 565.015 583.839 538.566 597.315C508.496 612.636 469.134 612.636 390.409 612.636H277.954C199.229 612.636 159.866 612.636 129.797 597.315C103.347 583.839 81.8429 562.333 68.3663 535.884C53.0453 505.814 53.0453 466.452 53.0453 387.727V275.272Z" fill="url(#paint0_linear_21945_10825)" fill-opacity="0.2"/>
<mask id="mask1_21945_10825" style="mask-type:luminance" maskUnits="userSpaceOnUse" x="53" y="50" width="563" height="563">
<path d="M615.318 50.3633H53.0453V612.636H615.318V50.3633Z" fill="white"/>
</mask>
<g mask="url(#mask1_21945_10825)">
<g opacity="0.14">
<path fill-rule="evenodd" clip-rule="evenodd" d="M333.5 50.3633H334.863V84.8241C367.442 84.9123 398.535 91.3159 426.985 102.875V50.3633H428.348V103.434C452.503 113.418 474.725 127.128 494.299 143.847H520.469V50.3633H521.833V143.847H615.318V145.211H521.833V171.38C538.552 190.954 552.261 213.176 562.246 237.329H615.318V238.695H562.805C574.365 267.142 580.768 298.236 580.857 330.812H615.318V332.178H580.857C580.769 364.756 574.367 395.848 562.808 424.295H615.318V425.661H562.25C552.264 449.817 538.553 472.043 521.833 491.621V517.78H615.318V519.144H521.833V612.636H520.469V519.144H494.31C474.732 535.866 452.506 549.579 428.348 559.566V612.636H426.985V560.125C398.535 571.683 367.442 578.087 334.863 578.175V612.636H333.5V578.175C300.921 578.087 269.828 571.683 241.378 560.125V612.636H240.015V559.566C215.857 549.579 193.631 535.866 174.053 519.144H147.894V612.636H146.53V519.144H53.0453V517.78H146.53V491.621C129.809 472.043 116.098 449.817 106.114 425.661H53.0453V424.295H105.554C93.9963 395.848 87.5936 364.756 87.5059 332.178H53.0453V330.812H87.5059C87.5946 298.236 93.9986 267.142 105.558 238.695H53.0453V237.329H106.117C116.102 213.176 129.811 190.954 146.53 171.38V145.211H53.0453V143.847H146.53V50.3633H147.894V143.847H174.063C193.638 127.128 215.86 113.418 240.015 103.434V50.3633H241.378V102.875C269.828 91.3159 300.921 84.9125 333.5 84.8241V50.3633ZM333.5 86.1888C300.905 86.2777 269.808 92.7226 241.378 104.349V143.847H333.5V86.1888ZM240.015 104.912C216.696 114.614 195.198 127.81 176.172 143.847H240.015V104.912ZM172.479 145.211H147.894V169.795C155.504 161.037 163.72 152.82 172.479 145.211ZM147.894 171.884C156.091 162.327 165.01 153.408 174.567 145.211H240.015V237.329H147.894V171.884ZM146.53 173.489C130.493 192.515 117.297 214.013 107.595 237.329H146.53V173.489ZM107.032 238.695C95.4051 267.123 88.9599 298.22 88.8706 330.812H146.53V238.695H107.032ZM88.8706 332.178C88.9589 364.77 95.4028 395.867 107.029 424.295H146.53V332.178H88.8706ZM107.592 425.661C117.294 448.981 130.491 470.483 146.53 489.51V425.661H107.592ZM147.894 493.204V517.78H172.469C163.714 510.172 155.501 501.959 147.894 493.204ZM174.557 517.78C165.004 509.585 156.088 500.67 147.894 491.116V425.661H240.015V517.78H174.557ZM176.162 519.144C195.191 535.184 216.693 548.384 240.015 558.086V519.144H176.162ZM241.378 558.65C269.808 570.277 300.905 576.722 333.5 576.81V519.144H241.378V558.65ZM334.863 576.81C367.456 576.722 398.555 570.277 426.985 558.65V519.144H334.863V576.81ZM428.348 558.086C451.67 548.384 473.172 535.184 492.201 519.144H428.348V558.086ZM495.895 517.78H520.469V493.204C512.863 501.959 504.648 510.172 495.895 517.78ZM520.469 491.116C512.274 500.67 503.359 509.585 493.805 517.78H428.348V425.661H520.469V491.116ZM521.833 489.51C537.872 470.483 551.069 448.981 560.772 425.661H521.833V489.51ZM561.334 424.295C572.961 395.867 579.404 364.77 579.492 332.178H521.833V424.295H561.334ZM579.492 330.812C579.403 298.222 572.957 267.123 561.331 238.695H521.833V330.812H579.492ZM560.768 237.329C551.066 214.013 537.87 192.515 521.833 173.489V237.329H560.768ZM520.469 169.795V145.211H495.884C504.643 152.82 512.859 161.037 520.469 169.795ZM493.795 145.211C503.353 153.408 512.272 162.327 520.469 171.884V237.329H428.348V145.211H493.795ZM492.191 143.847C473.165 127.81 451.667 114.614 428.348 104.912V143.847H492.191ZM426.985 104.349C398.555 92.7224 367.456 86.2775 334.863 86.1888V143.847H426.985V104.349ZM241.378 145.211H333.5V237.329H241.378V145.211ZM426.985 145.211H334.863V237.329H426.985V145.211ZM240.015 424.295H147.894V332.178H240.015V424.295ZM241.378 425.661V517.78H333.5V425.661H241.378ZM333.5 424.295H241.378V332.178H333.5V424.295ZM334.863 425.661V517.78H426.985V425.661H334.863ZM426.985 424.295H334.863V332.178H426.985V424.295ZM520.469 424.295H428.348V332.178H520.469V424.295ZM241.378 238.695H333.5V330.812H241.378V238.695ZM147.894 238.695H240.015V330.812H147.894V238.695ZM426.985 238.695H334.863V330.812H426.985V238.695ZM428.348 330.812V238.695H520.469V330.812H428.348Z" fill="#0A0D12"/>
</g>
</g>
</g>
<path d="M54.8755 275.25C54.8755 235.857 54.8769 206.42 56.7848 183.068C58.691 159.736 62.4916 142.635 70.005 127.89C83.3133 101.771 104.549 80.5355 130.668 67.2272C145.413 59.7138 162.514 55.9132 185.846 54.0069C209.198 52.0991 238.635 52.0977 278.027 52.0977H390.482C429.874 52.0977 459.311 52.0991 482.663 54.0069C505.995 55.9132 523.095 59.7138 537.841 67.2272C563.96 80.5355 585.197 101.771 598.505 127.89C606.017 142.635 609.817 159.736 611.724 183.068C613.632 206.42 613.634 235.857 613.634 275.25V387.704C613.634 427.096 613.632 456.533 611.724 479.885C609.817 503.218 606.017 520.318 598.505 535.063C585.197 561.183 563.96 582.419 537.841 595.727C523.095 603.239 505.995 607.039 482.663 608.946C459.311 610.854 429.874 610.856 390.482 610.856H278.027C238.635 610.856 209.198 610.854 185.846 608.946C162.514 607.039 145.413 603.239 130.668 595.727C104.549 582.419 83.3133 561.183 70.005 535.063C62.4916 520.318 58.691 503.218 56.7848 479.885C54.8769 456.533 54.8755 427.096 54.8755 387.704V275.25Z" stroke="#0A0D12" stroke-opacity="0.12" stroke-width="3.5142"/>
<g filter="url(#filter1_dd_21945_10825)">
<path d="M470.714 332.865C470.714 255.032 407.618 191.936 329.784 191.936C251.951 191.936 188.854 255.032 188.854 332.865C188.854 410.699 251.951 473.795 329.784 473.795C407.618 473.795 470.714 410.699 470.714 332.865Z" fill="url(#paint1_radial_21945_10825)" fill-opacity="0.08"/>
<path d="M470.714 332.865C470.714 255.032 407.618 191.936 329.784 191.936C251.951 191.936 188.854 255.032 188.854 332.865C188.854 410.699 251.951 473.795 329.784 473.795C407.618 473.795 470.714 410.699 470.714 332.865Z" fill="url(#paint2_radial_21945_10825)" fill-opacity="0.18"/>
<path d="M492.851 336.884V302.701L455.313 293.291C455.313 293.291 451.818 272.895 445.519 266.812L463.209 246.942C448.261 255.543 433.851 265.073 420.063 275.478C432.778 298.169 436.671 324.863 430.978 350.317C425.284 375.771 410.415 398.146 389.29 413.049C368.166 427.952 342.312 434.305 316.807 430.86C291.301 427.416 267.985 414.424 251.44 394.434C234.894 374.445 226.314 348.903 227.383 322.825C228.452 296.746 239.094 272.015 257.218 253.488C275.343 234.961 299.641 223.977 325.34 222.693C351.04 221.409 376.285 229.917 396.116 246.548C411.799 234.791 428.167 224.005 445.131 214.247L443.577 211.665L412.857 225.189C412.857 225.189 396.548 211.139 390.55 209.476V171.968L358.277 164.527L338.17 194.027C328.743 193.005 319.231 193.093 309.823 194.289L290.839 164.527L259.04 178.051V214.991C259.04 214.991 240.271 229.041 238.373 233.198L204.416 220.506L185.648 250.705L207.652 277.579C207.652 277.579 201.439 297.974 201.698 305.153L167.44 314.256V350.364L203.855 360.606C203.855 360.606 210.673 386.254 212.83 387.085L191.257 414.352L213.822 441.356L247.822 428.226C254.494 434.462 262.228 439.415 270.646 442.844L269.568 481.185L300.849 489.939L322.422 458.776L349.604 457.42L368.934 486.918L400.431 475.014L400.949 435.886C408.774 431.127 415.868 425.229 422.004 418.379L454.925 432.428L472.572 402.097L449.618 374.348C454.388 365.836 457.094 356.295 457.514 346.513L492.851 336.884Z" fill="#0072FF"/>
<path d="M501.942 222.631C461.861 239.019 425.12 260.896 393.186 287.389C369.102 308.576 349.854 333.416 336.455 360.605C335.871 361.895 334.988 363.073 333.86 364.066C331.572 366.179 328.428 367.462 325.086 367.647C320.65 367.497 316.472 365.891 313.419 363.162L264.071 311.523C262.243 309.657 261.062 307.388 260.659 304.967C260.256 302.547 260.648 300.071 261.789 297.814C262.624 296.003 264.073 294.443 265.947 293.334C268.078 292.48 270.385 292.004 272.726 291.936C274.811 291.845 276.887 292.164 278.794 292.869C280.702 293.574 282.39 294.645 283.73 296.001L317.285 329.885C318.379 331.397 319.263 331.919 320.04 331.891C321.551 331.835 322.379 329.696 322.379 329.696C324.983 325.229 327.852 320.876 330.975 316.656C351.042 290.026 362.312 279.142 367.217 275.004L376.688 266.923C420.262 229.436 488.445 200.316 488.445 200.316C491.813 199.234 495.343 198.579 498.923 198.374C509.241 197.991 511.485 203.676 511.485 203.676C517.516 217.061 501.942 222.631 501.942 222.631Z" fill="#0072FF"/>
</g>
</g>
<defs>
<filter id="filter0_dddi_21945_10825" x="0.332249" y="15.1978" width="667.772" height="667.722" filterUnits="userSpaceOnUse" color-interpolation-filters="sRGB">
<feFlood flood-opacity="0" result="BackgroundImageFix"/>
<feColorMatrix in="SourceAlpha" type="matrix" values="0 0 0 0 0 0 0 0 0 0 0 0 0 0 0 0 0 0 127 0" result="hardAlpha"/>
<feOffset dy="17.571"/>
<feGaussianBlur stdDeviation="17.571"/>
<feColorMatrix type="matrix" values="0 0 0 0 0.0392157 0 0 0 0 0.0509804 0 0 0 0 0.0705882 0 0 0 0.06 0"/>
<feBlend mode="normal" in2="BackgroundImageFix" result="effect1_dropShadow_21945_10825"/>
<feColorMatrix in="SourceAlpha" type="matrix" values="0 0 0 0 0 0 0 0 0 0 0 0 0 0 0 0 0 0 127 0" result="hardAlpha"/>
<feOffset dy="17.571"/>
<feGaussianBlur stdDeviation="26.3565"/>
<feColorMatrix type="matrix" values="0 0 0 0 0.0392157 0 0 0 0 0.0509804 0 0 0 0 0.0705882 0 0 0 0.1 0"/>
<feBlend mode="normal" in2="effect1_dropShadow_21945_10825" result="effect2_dropShadow_21945_10825"/>
<feColorMatrix in="SourceAlpha" type="matrix" values="0 0 0 0 0 0 0 0 0 0 0 0 0 0 0 0 0 0 127 0" result="hardAlpha"/>
<feOffset dy="17.571"/>
<feGaussianBlur stdDeviation="8.78551"/>
<feComposite in2="hardAlpha" operator="out"/>
<feColorMatrix type="matrix" values="0 0 0 0 0.0392157 0 0 0 0 0.0509804 0 0 0 0 0.0705882 0 0 0 0.13 0"/>
<feBlend mode="normal" in2="effect2_dropShadow_21945_10825" result="effect3_dropShadow_21945_10825"/>
<feBlend mode="normal" in="SourceGraphic" in2="effect3_dropShadow_21945_10825" result="shape"/>
<feColorMatrix in="SourceAlpha" type="matrix" values="0 0 0 0 0 0 0 0 0 0 0 0 0 0 0 0 0 0 127 0" result="hardAlpha"/>
<feOffset dy="-8.78551"/>
<feGaussianBlur stdDeviation="4.39275"/>
<feComposite in2="hardAlpha" operator="arithmetic" k2="-1" k3="1"/>
<feColorMatrix type="matrix" values="0 0 0 0 0.0392157 0 0 0 0 0.0509804 0 0 0 0 0.0705882 0 0 0 0.1 0"/>
<feBlend mode="normal" in2="shape" result="effect4_innerShadow_21945_10825"/>
</filter>
<filter id="filter1_dd_21945_10825" x="118.114" y="131.644" width="444.084" height="424.062" filterUnits="userSpaceOnUse" color-interpolation-filters="sRGB">
<feFlood flood-opacity="0" result="BackgroundImageFix"/>
<feColorMatrix in="SourceAlpha" type="matrix" values="0 0 0 0 0 0 0 0 0 0 0 0 0 0 0 0 0 0 127 0" result="hardAlpha"/>
<feOffset dy="16.4418"/>
<feGaussianBlur stdDeviation="16.4418"/>
<feColorMatrix type="matrix" values="0 0 0 0 0.0392157 0 0 0 0 0.0509804 0 0 0 0 0.0705882 0 0 0 0.06 0"/>
<feBlend mode="normal" in2="BackgroundImageFix" result="effect1_dropShadow_21945_10825"/>
<feColorMatrix in="SourceAlpha" type="matrix" values="0 0 0 0 0 0 0 0 0 0 0 0 0 0 0 0 0 0 127 0" result="hardAlpha"/>
<feOffset dy="16.4418"/>
<feGaussianBlur stdDeviation="24.6627"/>
<feColorMatrix type="matrix" values="0 0 0 0 0.0392157 0 0 0 0 0.0509804 0 0 0 0 0.0705882 0 0 0 0.1 0"/>
<feBlend mode="normal" in2="effect1_dropShadow_21945_10825" result="effect2_dropShadow_21945_10825"/>
<feBlend mode="normal" in="SourceGraphic" in2="effect2_dropShadow_21945_10825" result="shape"/>
</filter>
<linearGradient id="paint0_linear_21945_10825" x1="334.181" y1="50.3633" x2="334.181" y2="612.636" gradientUnits="userSpaceOnUse">
<stop stop-color="white"/>
<stop offset="1" stop-color="#0A0D12"/>
</linearGradient>
<radialGradient id="paint1_radial_21945_10825" cx="0" cy="0" r="1" gradientUnits="userSpaceOnUse" gradientTransform="translate(329.784 191.936) rotate(90) scale(211.395)">
<stop stop-color="white" stop-opacity="0"/>
<stop offset="0.5" stop-color="white" stop-opacity="0"/>
<stop offset="0.99" stop-color="white"/>
<stop offset="1" stop-color="white" stop-opacity="0"/>
</radialGradient>
<radialGradient id="paint2_radial_21945_10825" cx="0" cy="0" r="1" gradientUnits="userSpaceOnUse" gradientTransform="translate(329.784 332.865) rotate(90) scale(140.93)">
<stop offset="0.746599" stop-color="white" stop-opacity="0"/>
<stop offset="1" stop-color="white"/>
</radialGradient>
</defs>
</svg>
