<svg width="30" height="30" viewBox="0 0 30 30" fill="none" xmlns="http://www.w3.org/2000/svg">
<g filter="url(#filter0_dddi_22012_12112)">
<mask id="mask0_22012_12112" style="mask-type:luminance" maskUnits="userSpaceOnUse" x="2" y="2" width="26" height="25">
<path d="M2.87366 11.817C2.87366 8.42135 2.87366 6.72349 3.5345 5.42651C4.11579 4.28565 5.04334 3.3581 6.1842 2.77681C7.48118 2.11597 9.17904 2.11597 12.5747 2.11597H17.4252C20.8209 2.11597 22.5187 2.11597 23.8157 2.77681C24.9566 3.3581 25.8842 4.28565 26.4655 5.42651C27.1263 6.72349 27.1263 8.42135 27.1263 11.817V16.6675C27.1263 20.0632 27.1263 21.7611 26.4655 23.058C25.8842 24.1989 24.9566 25.1265 23.8157 25.7078C22.5187 26.3686 20.8209 26.3686 17.4252 26.3686H12.5747C9.17904 26.3686 7.48118 26.3686 6.1842 25.7078C5.04334 25.1265 4.11579 24.1989 3.5345 23.058C2.87366 21.7611 2.87366 20.0632 2.87366 16.6675V11.817Z" fill="white"/>
</mask>
<g mask="url(#mask0_22012_12112)">
<path d="M2.87366 11.817C2.87366 8.42135 2.87366 6.72349 3.5345 5.42651C4.11579 4.28565 5.04334 3.3581 6.1842 2.77681C7.48118 2.11597 9.17904 2.11597 12.5747 2.11597H17.4252C20.8209 2.11597 22.5187 2.11597 23.8157 2.77681C24.9566 3.3581 25.8842 4.28565 26.4655 5.42651C27.1263 6.72349 27.1263 8.42135 27.1263 11.817V16.6675C27.1263 20.0632 27.1263 21.7611 26.4655 23.058C25.8842 24.1989 24.9566 25.1265 23.8157 25.7078C22.5187 26.3686 20.8209 26.3686 17.4252 26.3686H12.5747C9.17904 26.3686 7.48118 26.3686 6.1842 25.7078C5.04334 25.1265 4.11579 24.1989 3.5345 23.058C2.87366 21.7611 2.87366 20.0632 2.87366 16.6675V11.817Z" fill="white"/>
<path d="M2.87366 11.817C2.87366 8.42135 2.87366 6.72349 3.5345 5.42651C4.11579 4.28565 5.04334 3.3581 6.1842 2.77681C7.48118 2.11597 9.17904 2.11597 12.5747 2.11597H17.4252C20.8209 2.11597 22.5187 2.11597 23.8157 2.77681C24.9566 3.3581 25.8842 4.28565 26.4655 5.42651C27.1263 6.72349 27.1263 8.42135 27.1263 11.817V16.6675C27.1263 20.0632 27.1263 21.7611 26.4655 23.058C25.8842 24.1989 24.9566 25.1265 23.8157 25.7078C22.5187 26.3686 20.8209 26.3686 17.4252 26.3686H12.5747C9.17904 26.3686 7.48118 26.3686 6.1842 25.7078C5.04334 25.1265 4.11579 24.1989 3.5345 23.058C2.87366 21.7611 2.87366 20.0632 2.87366 16.6675V11.817Z" fill="url(#paint0_linear_22012_12112)" fill-opacity="0.2"/>
<mask id="mask1_22012_12112" style="mask-type:luminance" maskUnits="userSpaceOnUse" x="2" y="2" width="26" height="25">
<path d="M27.1263 2.11597H2.87366V26.3686H27.1263V2.11597Z" fill="white"/>
</mask>
<g mask="url(#mask1_22012_12112)">
<g opacity="0.14">
<path fill-rule="evenodd" clip-rule="evenodd" d="M14.9706 2.11597H15.0294V3.60237C16.4346 3.60618 17.7758 3.88238 19.0029 4.38097V2.11597H19.0617V4.4051C20.1036 4.83574 21.0621 5.42707 21.9064 6.1482H23.0352V2.11597H23.094V6.1482H27.1263V6.20707H23.094V7.3358C23.8151 8.18011 24.4064 9.13862 24.8371 10.1804H27.1263V10.2393H24.8612C25.3599 11.4663 25.636 12.8075 25.6399 14.2126H27.1263V14.2715H25.6399C25.6361 15.6768 25.3599 17.0178 24.8614 18.2449H27.1263V18.3038H24.8373C24.4066 19.3457 23.8152 20.3044 23.094 21.1488V22.2772H27.1263V22.336H23.094V26.3686H23.0352V22.336H21.9068C21.0624 23.0573 20.1037 23.6487 19.0617 24.0795V26.3686H19.0029V24.1036C17.7758 24.6022 16.4346 24.8784 15.0294 24.8822V26.3686H14.9706V24.8822C13.5654 24.8784 12.2242 24.6022 10.9971 24.1036V26.3686H10.9383V24.0795C9.89623 23.6487 8.93757 23.0573 8.09311 22.336H6.9648V26.3686H6.90594V22.336H2.87366V22.2772H6.90594V21.1488C6.18472 20.3044 5.59334 19.3457 5.16267 18.3038H2.87366V18.2449H5.13855C4.64001 17.0178 4.36384 15.6768 4.36006 14.2715H2.87366V14.2126H4.36006C4.36388 12.8075 4.64011 11.4663 5.1387 10.2393H2.87366V10.1804H5.16283C5.59348 9.13862 6.18482 8.18011 6.90594 7.3358V6.20707H2.87366V6.1482H6.90594V2.11597H6.9648V6.1482H8.09355C8.93788 5.42707 9.89639 4.83574 10.9383 4.4051V2.11597H10.9971V4.38097C12.2242 3.88238 13.5654 3.60618 14.9706 3.60237V2.11597ZM14.9706 3.66124C13.5647 3.66507 12.2233 3.94306 10.9971 4.44456V6.1482H14.9706V3.66124ZM10.9383 4.46884C9.93246 4.8873 9.00518 5.45649 8.18453 6.1482H10.9383V4.46884ZM8.02521 6.20707H6.9648V7.26746C7.29302 6.88968 7.64742 6.53527 8.02521 6.20707ZM6.9648 7.35755C7.31835 6.94532 7.70306 6.56061 8.1153 6.20707H10.9383V10.1804H6.9648V7.35755ZM6.90594 7.42678C6.21423 8.24741 5.64504 9.1747 5.22657 10.1804H6.90594V7.42678ZM5.20229 10.2393C4.70077 11.4655 4.42277 12.8068 4.41892 14.2126H6.90594V10.2393H5.20229ZM4.41892 14.2715C4.42273 15.6774 4.70068 17.0187 5.20214 18.2449H6.90594V14.2715H4.41892ZM5.22642 18.3038C5.6449 19.3096 6.21415 20.2371 6.90594 21.0578V18.3038H5.22642ZM6.9648 21.2171V22.2772H8.02478C7.64716 21.949 7.29289 21.5948 6.9648 21.2171ZM8.11486 22.2772C7.7028 21.9237 7.31822 21.5391 6.9648 21.1271V18.3038H10.9383V22.2772H8.11486ZM8.18407 22.336C9.00487 23.0279 9.93231 23.5972 10.9383 24.0157V22.336H8.18407ZM10.9971 24.04C12.2233 24.5415 13.5647 24.8195 14.9706 24.8233V22.336H10.9971V24.04ZM15.0294 24.8233C16.4352 24.8195 17.7766 24.5415 19.0029 24.04V22.336H15.0294V24.8233ZM19.0617 24.0157C20.0676 23.5972 20.9951 23.0279 21.8159 22.336H19.0617V24.0157ZM21.9752 22.2772H23.0352V21.2171C22.7071 21.5948 22.3528 21.949 21.9752 22.2772ZM23.0352 21.1271C22.6817 21.5391 22.2971 21.9237 21.8851 22.2772H19.0617V18.3038H23.0352V21.1271ZM23.094 21.0578C23.7858 20.2371 24.355 19.3096 24.7736 18.3038H23.094V21.0578ZM24.7978 18.2449C25.2993 17.0187 25.5772 15.6774 25.581 14.2715H23.094V18.2449H24.7978ZM25.581 14.2126C25.5772 12.8069 25.2992 11.4655 24.7977 10.2393H23.094V14.2126H25.581ZM24.7734 10.1804C24.3549 9.1747 23.7857 8.24741 23.094 7.42678V10.1804H24.7734ZM23.0352 7.26746V6.20707H21.9747C22.3525 6.53527 22.7069 6.88968 23.0352 7.26746ZM21.8846 6.20707C22.2969 6.56061 22.6816 6.94532 23.0352 7.35755V10.1804H19.0617V6.20707H21.8846ZM21.8154 6.1482C20.9948 5.45649 20.0675 4.8873 19.0617 4.46884V6.1482H21.8154ZM19.0029 4.44456C17.7766 3.94305 16.4352 3.66507 15.0294 3.66124V6.1482H19.0029V4.44456ZM10.9971 6.20707H14.9706V10.1804H10.9971V6.20707ZM19.0029 6.20707H15.0294V10.1804H19.0029V6.20707ZM10.9383 18.2449H6.9648V14.2715H10.9383V18.2449ZM10.9971 18.3038V22.2772H14.9706V18.3038H10.9971ZM14.9706 18.2449H10.9971V14.2715H14.9706V18.2449ZM15.0294 18.3038V22.2772H19.0029V18.3038H15.0294ZM19.0029 18.2449H15.0294V14.2715H19.0029V18.2449ZM23.0352 18.2449H19.0617V14.2715H23.0352V18.2449ZM10.9971 10.2393H14.9706V14.2126H10.9971V10.2393ZM6.9648 10.2393H10.9383V14.2126H6.9648V10.2393ZM19.0029 10.2393H15.0294V14.2126H19.0029V10.2393ZM19.0617 14.2126V10.2393H23.0352V14.2126H19.0617Z" fill="#0A0D12"/>
</g>
</g>
<g filter="url(#filter1_dd_22012_12112)">
<path d="M21.0631 14.2424C21.0631 10.8938 18.3486 8.1792 15 8.1792C11.6514 8.1792 8.93681 10.8938 8.93681 14.2424C8.93681 17.5909 11.6514 20.3055 15 20.3055C18.3486 20.3055 21.0631 17.5909 21.0631 14.2424Z" fill="url(#paint1_radial_22012_12112)" fill-opacity="0.08"/>
<path d="M21.0631 14.2424C21.0631 10.8938 18.3486 8.1792 15 8.1792C11.6514 8.1792 8.93681 10.8938 8.93681 14.2424C8.93681 17.5909 11.6514 20.3055 15 20.3055C18.3486 20.3055 21.0631 17.5909 21.0631 14.2424Z" fill="url(#paint2_radial_22012_12112)" fill-opacity="0.18"/>
<path d="M22.0003 14.8856V13.52L20.3853 13.144C20.3853 13.144 20.235 12.3292 19.964 12.0862L20.725 11.2924C20.0819 11.636 19.462 12.0168 18.8688 12.4324C19.4158 13.3389 19.5833 14.4053 19.3383 15.4222C19.0934 16.4391 18.4537 17.333 17.5449 17.9283C16.636 18.5237 15.5237 18.7775 14.4264 18.6399C13.3291 18.5023 12.326 17.9832 11.6142 17.1847C10.9024 16.3861 10.5332 15.3657 10.5792 14.3239C10.6252 13.282 11.083 12.2941 11.8628 11.5539C12.6425 10.8138 13.6879 10.375 14.7935 10.3237C15.8992 10.2724 16.9853 10.6123 17.8385 11.2767C18.5132 10.807 19.2174 10.3761 19.9472 9.98627L19.8804 9.88313L18.5588 10.4234C18.5588 10.4234 17.8571 9.86213 17.5991 9.79569V8.29724L16.2106 8L15.3455 9.17848C14.94 9.13765 14.5307 9.14117 14.126 9.18897L13.3092 8L11.9411 8.54028V10.016C11.9411 10.016 11.1337 10.5773 11.052 10.7434L9.59111 10.2363L8.78364 11.4428L9.73033 12.5163C9.73033 12.5163 9.46303 13.3311 9.47417 13.6179L8.00029 13.9816V15.4241L9.56698 15.8332C9.56698 15.8332 9.86027 16.8578 9.95309 16.891L9.02495 17.9804L9.99578 19.0592L11.4585 18.5346C11.7456 18.7837 12.0783 18.9816 12.4405 19.1186L12.3941 20.6503L13.7399 21L14.668 19.7551L15.8374 19.7009L16.6691 20.8794L18.0241 20.4038L18.0464 18.8406C18.3831 18.6505 18.6883 18.4149 18.9523 18.1412L20.3686 18.7025L21.1278 17.4908L20.1403 16.3822C20.3455 16.0422 20.462 15.661 20.48 15.2702L22.0003 14.8856Z" fill="#0072FF"/>
<path d="M22.5091 10.0477C20.7598 10.6883 19.1453 11.5702 17.7301 12.6582C16.6608 13.5306 15.7936 14.5679 15.1741 15.7154C15.147 15.7699 15.1071 15.8192 15.057 15.8601C14.9553 15.9473 14.8181 15.9974 14.6741 16C14.4836 15.9865 14.3066 15.9108 14.1796 15.7885L12.1405 13.4897C12.0649 13.4065 12.0177 13.3071 12.0043 13.2024C11.9908 13.0977 12.0116 12.9919 12.0643 12.8967C12.1031 12.8201 12.1678 12.7553 12.2502 12.7107C12.3432 12.6774 12.4431 12.6606 12.5439 12.6614C12.6337 12.6608 12.7224 12.6778 12.8033 12.7112C12.8842 12.7445 12.955 12.7933 13.0104 12.8537L14.399 14.3641C14.4436 14.4308 14.4808 14.4547 14.5142 14.4547C14.5793 14.4547 14.6183 14.3641 14.6183 14.3641C14.7374 14.1762 14.8677 13.9936 15.0087 13.8172C15.9139 12.7043 16.4158 12.2544 16.6333 12.0843L17.0534 11.752C18.9866 10.2099 21.9645 9.06677 21.9645 9.06677C22.1111 9.02561 22.2639 9.00311 22.4181 9C22.8623 9 22.9497 9.24801 22.9497 9.24801C23.1876 9.83308 22.5091 10.0477 22.5091 10.0477Z" fill="#0072FF"/>
</g>
</g>
<path d="M2.94945 11.8169C2.94945 10.1178 2.94951 8.84809 3.0318 7.84082C3.11402 6.83446 3.27796 6.09684 3.60203 5.46081C4.17606 4.33421 5.09201 3.41827 6.21861 2.84424C6.85464 2.52016 7.59226 2.35623 8.59864 2.274C9.60589 2.19171 10.8756 2.19165 12.5747 2.19165H17.4252C19.1244 2.19165 20.3941 2.19171 21.4013 2.274C22.4077 2.35623 23.1453 2.52016 23.7813 2.84424C24.9079 3.41827 25.8239 4.33421 26.398 5.46081C26.722 6.09684 26.8859 6.83446 26.9681 7.84082C27.0504 8.84809 27.0505 10.1178 27.0505 11.8169V16.6674C27.0505 18.3666 27.0504 19.6363 26.9681 20.6435C26.8859 21.6499 26.722 22.3875 26.398 23.0235C25.8239 24.1501 24.9079 25.0661 23.7813 25.6402C23.1453 25.9642 22.4077 26.1281 21.4013 26.2103C20.3941 26.2926 19.1244 26.2927 17.4252 26.2927H12.5747C10.8756 26.2927 9.60589 26.2926 8.59864 26.2103C7.59226 26.1281 6.85464 25.9642 6.21861 25.6402C5.09201 25.0661 4.17606 24.1501 3.60203 23.0235C3.27796 22.3875 3.11402 21.6499 3.0318 20.6435C2.94951 19.6363 2.94945 18.3666 2.94945 16.6674V11.8169Z" stroke="#0A0D12" stroke-opacity="0.12" stroke-width="0.151579"/>
</g>
<defs>
<filter id="filter0_dddi_22012_12112" x="0.599973" y="0.600177" width="28.8" height="28.8001" filterUnits="userSpaceOnUse" color-interpolation-filters="sRGB">
<feFlood flood-opacity="0" result="BackgroundImageFix"/>
<feColorMatrix in="SourceAlpha" type="matrix" values="0 0 0 0 0 0 0 0 0 0 0 0 0 0 0 0 0 0 127 0" result="hardAlpha"/>
<feOffset dy="0.757895"/>
<feGaussianBlur stdDeviation="0.757895"/>
<feColorMatrix type="matrix" values="0 0 0 0 0.0392157 0 0 0 0 0.0509804 0 0 0 0 0.0705882 0 0 0 0.06 0"/>
<feBlend mode="normal" in2="BackgroundImageFix" result="effect1_dropShadow_22012_12112"/>
<feColorMatrix in="SourceAlpha" type="matrix" values="0 0 0 0 0 0 0 0 0 0 0 0 0 0 0 0 0 0 127 0" result="hardAlpha"/>
<feOffset dy="0.757895"/>
<feGaussianBlur stdDeviation="1.13684"/>
<feColorMatrix type="matrix" values="0 0 0 0 0.0392157 0 0 0 0 0.0509804 0 0 0 0 0.0705882 0 0 0 0.1 0"/>
<feBlend mode="normal" in2="effect1_dropShadow_22012_12112" result="effect2_dropShadow_22012_12112"/>
<feColorMatrix in="SourceAlpha" type="matrix" values="0 0 0 0 0 0 0 0 0 0 0 0 0 0 0 0 0 0 127 0" result="hardAlpha"/>
<feOffset dy="0.757895"/>
<feGaussianBlur stdDeviation="0.378947"/>
<feComposite in2="hardAlpha" operator="out"/>
<feColorMatrix type="matrix" values="0 0 0 0 0.0392157 0 0 0 0 0.0509804 0 0 0 0 0.0705882 0 0 0 0.13 0"/>
<feBlend mode="normal" in2="effect2_dropShadow_22012_12112" result="effect3_dropShadow_22012_12112"/>
<feBlend mode="normal" in="SourceGraphic" in2="effect3_dropShadow_22012_12112" result="shape"/>
<feColorMatrix in="SourceAlpha" type="matrix" values="0 0 0 0 0 0 0 0 0 0 0 0 0 0 0 0 0 0 127 0" result="hardAlpha"/>
<feOffset dy="-0.378947"/>
<feGaussianBlur stdDeviation="0.189474"/>
<feComposite in2="hardAlpha" operator="arithmetic" k2="-1" k3="1"/>
<feColorMatrix type="matrix" values="0 0 0 0 0.0392157 0 0 0 0 0.0509804 0 0 0 0 0.0705882 0 0 0 0.1 0"/>
<feBlend mode="normal" in2="shape" result="effect4_innerShadow_22012_12112"/>
</filter>
<filter id="filter1_dd_22012_12112" x="5.72661" y="6.48421" width="19.5474" height="17.5474" filterUnits="userSpaceOnUse" color-interpolation-filters="sRGB">
<feFlood flood-opacity="0" result="BackgroundImageFix"/>
<feColorMatrix in="SourceAlpha" type="matrix" values="0 0 0 0 0 0 0 0 0 0 0 0 0 0 0 0 0 0 127 0" result="hardAlpha"/>
<feOffset dy="0.757895"/>
<feGaussianBlur stdDeviation="0.757895"/>
<feColorMatrix type="matrix" values="0 0 0 0 0.0392157 0 0 0 0 0.0509804 0 0 0 0 0.0705882 0 0 0 0.06 0"/>
<feBlend mode="normal" in2="BackgroundImageFix" result="effect1_dropShadow_22012_12112"/>
<feColorMatrix in="SourceAlpha" type="matrix" values="0 0 0 0 0 0 0 0 0 0 0 0 0 0 0 0 0 0 127 0" result="hardAlpha"/>
<feOffset dy="0.757895"/>
<feGaussianBlur stdDeviation="1.13684"/>
<feColorMatrix type="matrix" values="0 0 0 0 0.0392157 0 0 0 0 0.0509804 0 0 0 0 0.0705882 0 0 0 0.1 0"/>
<feBlend mode="normal" in2="effect1_dropShadow_22012_12112" result="effect2_dropShadow_22012_12112"/>
<feBlend mode="normal" in="SourceGraphic" in2="effect2_dropShadow_22012_12112" result="shape"/>
</filter>
<linearGradient id="paint0_linear_22012_12112" x1="15" y1="2.11597" x2="15" y2="26.3686" gradientUnits="userSpaceOnUse">
<stop stop-color="white"/>
<stop offset="1" stop-color="#0A0D12"/>
</linearGradient>
<radialGradient id="paint1_radial_22012_12112" cx="0" cy="0" r="1" gradientUnits="userSpaceOnUse" gradientTransform="translate(15 8.1792) rotate(90) scale(9.09474)">
<stop stop-color="white" stop-opacity="0"/>
<stop offset="0.5" stop-color="white" stop-opacity="0"/>
<stop offset="0.99" stop-color="white"/>
<stop offset="1" stop-color="white" stop-opacity="0"/>
</radialGradient>
<radialGradient id="paint2_radial_22012_12112" cx="0" cy="0" r="1" gradientUnits="userSpaceOnUse" gradientTransform="translate(15 14.2424) rotate(90) scale(6.06316)">
<stop offset="0.746599" stop-color="white" stop-opacity="0"/>
<stop offset="1" stop-color="white"/>
</radialGradient>
</defs>
</svg>
