<svg width="131" height="19" viewBox="0 0 131 19" fill="none" xmlns="http://www.w3.org/2000/svg">
<path d="M6.81822 10.896V4.968H9.80122V15H7.00822V13.48H6.98922C6.73589 14.0627 6.33689 14.506 5.79222 14.81C5.26022 15.114 4.65222 15.266 3.96822 15.266C2.89155 15.266 2.00489 14.905 1.30822 14.183C0.611552 13.461 0.263219 12.492 0.263219 11.276V4.968H3.24622V10.915C3.24622 11.5357 3.42989 11.998 3.79722 12.302C4.16455 12.606 4.56989 12.758 5.01322 12.758C5.46922 12.758 5.88089 12.606 6.24822 12.302C6.62822 11.998 6.81822 11.5293 6.81822 10.896ZM13.9649 9.072V15H10.9819V4.968H13.7749V6.488H13.7939C14.0472 5.90533 14.4399 5.462 14.9719 5.158C15.5166 4.854 16.1309 4.702 16.8149 4.702C17.8916 4.702 18.7782 5.063 19.4749 5.785C20.1716 6.507 20.5199 7.476 20.5199 8.692V15H17.5369V9.053C17.5369 8.43233 17.3532 7.97 16.9859 7.666C16.6186 7.362 16.2132 7.21 15.7699 7.21C15.3139 7.21 14.8959 7.362 14.5159 7.666C14.1486 7.97 13.9649 8.43867 13.9649 9.072ZM23.9426 4.17H23.7526C23.2586 4.17 22.8406 4.00533 22.4986 3.676C22.1692 3.334 22.0046 2.935 22.0046 2.479C22.0046 2.01033 22.1692 1.61133 22.4986 1.282C22.8406 0.952666 23.2586 0.788 23.7526 0.788H23.9426C24.4239 0.788 24.8292 0.952666 25.1586 1.282C25.5006 1.61133 25.6716 2.01033 25.6716 2.479C25.6716 2.935 25.5006 3.334 25.1586 3.676C24.8292 4.00533 24.4239 4.17 23.9426 4.17ZM20.8266 7.324V4.968H25.3296V15H22.3466V7.324H20.8266ZM36.2994 4.968V18.648H33.3164V13.784H33.2974C33.0187 14.2273 32.6387 14.5883 32.1574 14.867C31.6761 15.133 31.0744 15.266 30.3524 15.266C29.6177 15.266 28.9717 15.1203 28.4144 14.829C27.8697 14.525 27.4201 14.1323 27.0654 13.651C26.7107 13.157 26.4447 12.5933 26.2674 11.96C26.0901 11.314 26.0014 10.6553 26.0014 9.984C26.0014 9.3 26.0901 8.64133 26.2674 8.008C26.4447 7.362 26.7107 6.79833 27.0654 6.317C27.4327 5.83567 27.8887 5.44933 28.4334 5.158C28.9781 4.854 29.6177 4.702 30.3524 4.702C31.1504 4.702 31.8027 4.86667 32.3094 5.196C32.8161 5.51267 33.2087 5.94333 33.4874 6.488H33.5064V4.968H36.2994ZM28.9844 9.49V10.44C28.9844 11.2 29.1934 11.789 29.6114 12.207C30.0294 12.6123 30.5424 12.815 31.1504 12.815C31.7584 12.815 32.2714 12.606 32.6894 12.188C33.1074 11.77 33.3164 11.1873 33.3164 10.44V9.49C33.3164 8.74267 33.1074 8.16 32.6894 7.742C32.2714 7.324 31.7584 7.115 31.1504 7.115C30.5424 7.115 30.0294 7.324 29.6114 7.742C29.1934 8.14733 28.9844 8.73 28.9844 9.49ZM43.932 10.896V4.968H46.915V15H44.122V13.48H44.103C43.8497 14.0627 43.4507 14.506 42.906 14.81C42.374 15.114 41.766 15.266 41.082 15.266C40.0054 15.266 39.1187 14.905 38.422 14.183C37.7254 13.461 37.377 12.492 37.377 11.276V4.968H40.36V10.915C40.36 11.5357 40.5437 11.998 40.911 12.302C41.2784 12.606 41.6837 12.758 42.127 12.758C42.583 12.758 42.9947 12.606 43.362 12.302C43.742 11.998 43.932 11.5293 43.932 10.896ZM52.7697 15.266C51.8957 15.266 51.1294 15.1203 50.4707 14.829C49.8121 14.525 49.2674 14.1323 48.8367 13.651C48.4187 13.1697 48.1021 12.6123 47.8867 11.979C47.6841 11.333 47.5827 10.668 47.5827 9.984C47.5827 9.31267 47.6841 8.66033 47.8867 8.027C48.0894 7.381 48.3997 6.81733 48.8177 6.336C49.2357 5.842 49.7677 5.44933 50.4137 5.158C51.0597 4.854 51.8134 4.702 52.6747 4.702C53.5107 4.702 54.2391 4.84767 54.8597 5.139C55.4931 5.41767 56.0124 5.79133 56.4177 6.26C56.8357 6.716 57.1461 7.248 57.3487 7.856C57.5514 8.45133 57.6527 9.06567 57.6527 9.699V10.763H50.5657C50.5784 11.4977 50.8001 12.0677 51.2307 12.473C51.6614 12.8783 52.1997 13.081 52.8457 13.081C53.3777 13.081 53.7831 12.967 54.0617 12.739C54.3404 12.4983 54.4924 12.245 54.5177 11.979H57.4627C57.3234 12.967 56.8231 13.765 55.9617 14.373C55.1004 14.9683 54.0364 15.266 52.7697 15.266ZM52.6747 6.887C52.1174 6.887 51.6487 7.058 51.2687 7.4C50.8887 7.72933 50.6607 8.20433 50.5847 8.825H54.6697C54.6444 8.19167 54.4481 7.71033 54.0807 7.381C53.7134 7.05167 53.2447 6.887 52.6747 6.887Z" fill="#0072FF"/>
<path d="M58.2162 12.188V0.901999H61.1992V11.675C61.1992 11.979 61.2752 12.207 61.4272 12.359C61.5792 12.4983 61.8009 12.568 62.0922 12.568H63.6882V15H61.1612C60.1732 15 59.4322 14.7593 58.9382 14.278C58.4569 13.784 58.2162 13.0873 58.2162 12.188ZM68.2837 15.266C67.4097 15.266 66.6433 15.1203 65.9847 14.829C65.326 14.525 64.7813 14.1323 64.3507 13.651C63.9327 13.1697 63.616 12.6123 63.4007 11.979C63.198 11.333 63.0967 10.668 63.0967 9.984C63.0967 9.31267 63.198 8.66033 63.4007 8.027C63.6033 7.381 63.9137 6.81733 64.3317 6.336C64.7497 5.842 65.2817 5.44933 65.9277 5.158C66.5737 4.854 67.3273 4.702 68.1887 4.702C69.0247 4.702 69.753 4.84767 70.3737 5.139C71.007 5.41767 71.5263 5.79133 71.9317 6.26C72.3497 6.716 72.66 7.248 72.8627 7.856C73.0653 8.45133 73.1667 9.06567 73.1667 9.699V10.763H66.0797C66.0923 11.4977 66.314 12.0677 66.7447 12.473C67.1753 12.8783 67.7137 13.081 68.3597 13.081C68.8917 13.081 69.297 12.967 69.5757 12.739C69.8543 12.4983 70.0063 12.245 70.0317 11.979H72.9767C72.8373 12.967 72.337 13.765 71.4757 14.373C70.6143 14.9683 69.5503 15.266 68.2837 15.266ZM68.1887 6.887C67.6313 6.887 67.1627 7.058 66.7827 7.4C66.4027 7.72933 66.1747 8.20433 66.0987 8.825H70.1837C70.1583 8.19167 69.962 7.71033 69.5947 7.381C69.2273 7.05167 68.7587 6.887 68.1887 6.887ZM82.9138 4.968L79.3228 15.038H76.2638L72.4258 4.968H75.7128L77.8218 11.485H77.8408L79.9308 4.968H82.9138ZM87.3601 15.266C86.4861 15.266 85.7198 15.1203 85.0611 14.829C84.4024 14.525 83.8578 14.1323 83.4271 13.651C83.0091 13.1697 82.6924 12.6123 82.4771 11.979C82.2744 11.333 82.1731 10.668 82.1731 9.984C82.1731 9.31267 82.2744 8.66033 82.4771 8.027C82.6798 7.381 82.9901 6.81733 83.4081 6.336C83.8261 5.842 84.3581 5.44933 85.0041 5.158C85.6501 4.854 86.4038 4.702 87.2651 4.702C88.1011 4.702 88.8294 4.84767 89.4501 5.139C90.0834 5.41767 90.6028 5.79133 91.0081 6.26C91.4261 6.716 91.7364 7.248 91.9391 7.856C92.1418 8.45133 92.2431 9.06567 92.2431 9.699V10.763H85.1561C85.1688 11.4977 85.3904 12.0677 85.8211 12.473C86.2518 12.8783 86.7901 13.081 87.4361 13.081C87.9681 13.081 88.3734 12.967 88.6521 12.739C88.9308 12.4983 89.0828 12.245 89.1081 11.979H92.0531C91.9138 12.967 91.4134 13.765 90.5521 14.373C89.6908 14.9683 88.6268 15.266 87.3601 15.266ZM87.2651 6.887C86.7078 6.887 86.2391 7.058 85.8591 7.4C85.4791 7.72933 85.2511 8.20433 85.1751 8.825H89.2601C89.2348 8.19167 89.0384 7.71033 88.6711 7.381C88.3038 7.05167 87.8351 6.887 87.2651 6.887ZM92.9016 15V4.968H95.7516V6.754H95.7706C95.8212 6.55133 95.9162 6.34867 96.0556 6.146C96.1949 5.93067 96.3786 5.73433 96.6066 5.557C96.8472 5.37967 97.1322 5.234 97.4616 5.12C97.8036 5.006 98.2026 4.949 98.6586 4.949H99.7796V7.685H98.1076C97.3222 7.685 96.7522 7.837 96.3976 8.141C96.0556 8.445 95.8846 8.90733 95.8846 9.528V15H92.9016ZM99.6221 7.932C99.7361 6.96933 100.186 6.19033 100.971 5.595C101.756 4.99967 102.827 4.702 104.182 4.702C104.752 4.702 105.297 4.76533 105.816 4.892C106.348 5.01867 106.81 5.22767 107.203 5.519C107.608 5.79767 107.931 6.17133 108.172 6.64C108.413 7.10867 108.533 7.685 108.533 8.369V12.131C108.533 12.3717 108.584 12.53 108.685 12.606C108.786 12.682 108.938 12.72 109.141 12.72H109.73V15H108.172C107.45 15 106.931 14.848 106.614 14.544C106.31 14.24 106.158 13.8473 106.158 13.366V13.347H106.139C105.898 13.9297 105.499 14.3983 104.942 14.753C104.397 15.095 103.72 15.266 102.909 15.266C101.845 15.266 100.977 14.9937 100.306 14.449C99.6474 13.8917 99.3181 13.138 99.3181 12.188C99.3181 11.1747 99.6728 10.421 100.382 9.927C101.091 9.42033 102.073 9.08467 103.327 8.92L104.372 8.787C104.803 8.73633 105.107 8.635 105.284 8.483C105.474 8.331 105.569 8.122 105.569 7.856C105.569 7.57733 105.461 7.33667 105.246 7.134C105.031 6.91867 104.657 6.811 104.125 6.811C103.618 6.811 103.232 6.91867 102.966 7.134C102.7 7.33667 102.561 7.60267 102.548 7.932H99.6221ZM105.607 11.029V10.269C105.518 10.3323 105.379 10.4083 105.189 10.497C105.012 10.573 104.79 10.6237 104.524 10.649L103.783 10.744C103.276 10.8073 102.884 10.934 102.605 11.124C102.339 11.314 102.206 11.5673 102.206 11.884V11.998C102.206 12.3147 102.32 12.5743 102.548 12.777C102.776 12.967 103.112 13.062 103.555 13.062C104.201 13.062 104.701 12.872 105.056 12.492C105.423 12.112 105.607 11.6243 105.607 11.029ZM109.652 15.494H112.578C112.629 15.8487 112.812 16.1337 113.129 16.349C113.458 16.5643 113.895 16.672 114.44 16.672C115.162 16.672 115.719 16.4757 116.112 16.083C116.505 15.6903 116.701 15.0697 116.701 14.221V13.024H116.682C116.403 13.4547 116.023 13.8093 115.542 14.088C115.061 14.354 114.459 14.487 113.737 14.487C113.015 14.487 112.382 14.3477 111.837 14.069C111.292 13.7903 110.843 13.423 110.488 12.967C110.133 12.511 109.867 11.9853 109.69 11.39C109.513 10.7947 109.424 10.1803 109.424 9.547C109.424 8.939 109.513 8.34367 109.69 7.761C109.867 7.17833 110.133 6.66533 110.488 6.222C110.843 5.766 111.292 5.39867 111.837 5.12C112.382 4.84133 113.015 4.702 113.737 4.702C114.535 4.702 115.187 4.86033 115.694 5.177C116.213 5.481 116.606 5.88633 116.872 6.393H116.891V4.968H119.684V13.955C119.684 15.4877 119.228 16.6973 118.316 17.584C117.417 18.4707 116.118 18.914 114.421 18.914C113.686 18.914 113.028 18.8253 112.445 18.648C111.862 18.4707 111.368 18.2237 110.963 17.907C110.57 17.603 110.26 17.242 110.032 16.824C109.817 16.406 109.69 15.9627 109.652 15.494ZM112.407 9.395V9.813C112.407 10.535 112.61 11.0923 113.015 11.485C113.433 11.8777 113.946 12.074 114.554 12.074C115.162 12.074 115.669 11.8777 116.074 11.485C116.492 11.0797 116.701 10.5223 116.701 9.813V9.395C116.701 8.673 116.492 8.11567 116.074 7.723C115.669 7.33033 115.162 7.134 114.554 7.134C113.946 7.134 113.433 7.33033 113.015 7.723C112.61 8.103 112.407 8.66033 112.407 9.395ZM125.532 15.266C124.658 15.266 123.891 15.1203 123.233 14.829C122.574 14.525 122.029 14.1323 121.599 13.651C121.181 13.1697 120.864 12.6123 120.649 11.979C120.446 11.333 120.345 10.668 120.345 9.984C120.345 9.31267 120.446 8.66033 120.649 8.027C120.851 7.381 121.162 6.81733 121.58 6.336C121.998 5.842 122.53 5.44933 123.176 5.158C123.822 4.854 124.575 4.702 125.437 4.702C126.273 4.702 127.001 4.84767 127.622 5.139C128.255 5.41767 128.774 5.79133 129.18 6.26C129.598 6.716 129.908 7.248 130.111 7.856C130.313 8.45133 130.415 9.06567 130.415 9.699V10.763H123.328C123.34 11.4977 123.562 12.0677 123.993 12.473C124.423 12.8783 124.962 13.081 125.608 13.081C126.14 13.081 126.545 12.967 126.824 12.739C127.102 12.4983 127.254 12.245 127.28 11.979H130.225C130.085 12.967 129.585 13.765 128.724 14.373C127.862 14.9683 126.798 15.266 125.532 15.266ZM125.437 6.887C124.879 6.887 124.411 7.058 124.031 7.4C123.651 7.72933 123.423 8.20433 123.347 8.825H127.432C127.406 8.19167 127.21 7.71033 126.843 7.381C126.475 7.05167 126.007 6.887 125.437 6.887Z" fill="#344054"/>
</svg>
