<svg width="3080" height="425" viewBox="0 0 3080 425" fill="none" xmlns="http://www.w3.org/2000/svg">
<g clip-path="url(#clip0_22410_18460)">
<path d="M153.942 236.877V97.9955H223.827V333.025H158.393V297.415H157.948C152.013 311.066 142.665 321.452 129.904 328.574C117.441 335.696 103.196 339.257 87.1719 339.257C61.9477 339.257 41.1748 330.8 24.8533 313.885C8.53185 296.97 0.371094 274.268 0.371094 245.779V97.9955H70.2568V237.322C70.2568 251.863 74.5598 262.694 83.1657 269.817C91.7716 276.939 101.268 280.5 111.654 280.5C122.337 280.5 131.982 276.939 140.588 269.817C149.49 262.694 153.942 251.715 153.942 236.877Z" fill="#0072FF"/>
<path d="M321.374 194.144V333.025H251.488V97.9955H316.923V133.606H317.368C323.303 119.955 332.502 109.569 344.966 102.447C357.726 95.3247 372.119 91.7637 388.144 91.7637C413.368 91.7637 434.141 100.221 450.462 117.136C466.784 134.051 474.944 156.753 474.944 185.241V333.025H405.059V193.699C405.059 179.158 400.756 168.326 392.15 161.204C383.544 154.082 374.048 150.521 363.661 150.521C352.978 150.521 343.185 154.082 334.283 161.204C325.677 168.326 321.374 179.306 321.374 194.144Z" fill="#0072FF"/>
<path d="M555.131 79.2999H550.68C539.106 79.2999 529.313 75.4421 521.301 67.7265C513.585 59.7141 509.727 50.3664 509.727 39.6832C509.727 28.7032 513.585 19.3555 521.301 11.6398C529.313 3.92421 539.106 0.0664062 550.68 0.0664062H555.131C566.408 0.0664062 575.904 3.92421 583.619 11.6398C591.632 19.3555 595.638 28.7032 595.638 39.6832C595.638 50.3664 591.632 59.7141 583.619 67.7265C575.904 75.4421 566.408 79.2999 555.131 79.2999ZM482.129 153.192V97.9955H587.626V333.025H517.74V153.192H482.129Z" fill="#0072FF"/>
<path d="M844.627 97.9955V418.491H774.741V304.537H774.296C767.767 314.923 758.865 323.381 747.588 329.909C736.311 336.141 722.216 339.257 705.3 339.257C688.089 339.257 672.954 335.845 659.897 329.019C647.137 321.897 636.602 312.698 628.293 301.421C619.983 289.848 613.752 276.642 609.597 261.804C605.442 246.67 603.365 231.238 603.365 215.51C603.365 199.486 605.442 184.054 609.597 169.217C613.752 154.082 619.983 140.877 628.293 129.6C636.898 118.323 647.582 109.272 660.342 102.447C673.103 95.3247 688.089 91.7637 705.3 91.7637C723.996 91.7637 739.279 95.6215 751.149 103.337C763.019 110.756 772.219 120.846 778.747 133.606H779.192V97.9955H844.627ZM673.251 203.937V226.194C673.251 243.999 678.147 257.798 687.94 267.591C697.733 277.087 709.752 281.835 723.996 281.835C738.24 281.835 750.259 276.939 760.052 267.146C769.845 257.353 774.741 243.702 774.741 226.194V203.937C774.741 186.428 769.845 172.778 760.052 162.985C750.259 153.192 738.24 148.295 723.996 148.295C709.752 148.295 697.733 153.192 687.94 162.985C678.147 172.481 673.251 186.132 673.251 203.937Z" fill="#0072FF"/>
<path d="M1023.44 236.877V97.9955H1093.33V333.025H1027.9V297.415H1027.45C1021.52 311.066 1012.17 321.452 999.409 328.574C986.945 335.696 972.701 339.257 956.676 339.257C931.452 339.257 910.679 330.8 894.358 313.885C878.036 296.97 869.875 274.268 869.875 245.779V97.9955H939.761V237.322C939.761 251.863 944.064 262.694 952.67 269.817C961.276 276.939 970.772 280.5 981.158 280.5C991.841 280.5 1001.48 276.939 1010.09 269.817C1018.99 262.694 1023.44 251.715 1023.44 236.877Z" fill="#0072FF"/>
<path d="M1230.49 339.257C1210.02 339.257 1192.06 335.845 1176.63 329.019C1161.2 321.897 1148.44 312.698 1138.35 301.421C1128.56 290.144 1121.14 277.087 1116.09 262.249C1111.35 247.115 1108.97 231.535 1108.97 215.51C1108.97 199.782 1111.35 184.5 1116.09 169.662C1120.84 154.527 1128.11 141.322 1137.91 130.045C1147.7 118.472 1160.16 109.272 1175.3 102.447C1190.43 95.3247 1208.09 91.7637 1228.27 91.7637C1247.85 91.7637 1264.92 95.1763 1279.46 102.002C1294.3 108.53 1306.46 117.285 1315.96 128.265C1325.75 138.948 1333.02 151.411 1337.77 165.656C1342.52 179.603 1344.89 193.996 1344.89 208.833V233.761H1178.86C1179.16 250.973 1184.35 264.327 1194.44 273.823C1204.53 283.319 1217.14 288.067 1232.27 288.067C1244.74 288.067 1254.23 285.396 1260.76 280.055C1267.29 274.416 1270.85 268.481 1271.45 262.249H1340.44C1337.18 285.396 1325.46 304.092 1305.28 318.336C1285.1 332.283 1260.17 339.257 1230.49 339.257ZM1228.27 142.954C1215.21 142.954 1204.23 146.96 1195.33 154.972C1186.43 162.688 1181.08 173.816 1179.3 188.357H1275.01C1274.41 173.52 1269.81 162.243 1261.21 154.527C1252.6 146.812 1241.62 142.954 1228.27 142.954Z" fill="#0072FF"/>
<path d="M1358.09 267.146V2.73718H1427.98V255.127C1427.98 262.249 1429.76 267.591 1433.32 271.152C1436.88 274.416 1442.08 276.048 1448.9 276.048H1486.29V333.025H1427.09C1403.94 333.025 1386.58 327.387 1375.01 316.11C1363.73 304.537 1358.09 288.215 1358.09 267.146Z" fill="white" fill-opacity="0.9"/>
<path d="M1607.81 339.257C1587.34 339.257 1569.38 335.845 1553.95 329.019C1538.52 321.897 1525.76 312.698 1515.67 301.421C1505.88 290.144 1498.46 277.087 1493.41 262.249C1488.67 247.115 1486.29 231.535 1486.29 215.51C1486.29 199.782 1488.67 184.5 1493.41 169.662C1498.16 154.527 1505.43 141.322 1515.23 130.045C1525.02 118.472 1537.48 109.272 1552.62 102.447C1567.75 95.3247 1585.41 91.7637 1605.59 91.7637C1625.17 91.7637 1642.24 95.1763 1656.78 102.002C1671.62 108.53 1683.78 117.285 1693.28 128.265C1703.07 138.948 1710.34 151.411 1715.09 165.656C1719.84 179.603 1722.21 193.996 1722.21 208.833V233.761H1556.18C1556.47 250.973 1561.67 264.327 1571.76 273.823C1581.85 283.319 1594.46 288.067 1609.59 288.067C1622.06 288.067 1631.55 285.396 1638.08 280.055C1644.61 274.416 1648.17 268.481 1648.77 262.249H1717.76C1714.5 285.396 1702.77 304.092 1682.6 318.336C1662.42 332.283 1637.49 339.257 1607.81 339.257ZM1605.59 142.954C1592.53 142.954 1581.55 146.96 1572.65 154.972C1563.75 162.688 1558.4 173.816 1556.62 188.357H1652.33C1651.73 173.52 1647.13 162.243 1638.53 154.527C1629.92 146.812 1618.94 142.954 1605.59 142.954Z" fill="white" fill-opacity="0.9"/>
<path d="M1960.14 97.9955L1876.01 333.916H1804.34L1714.43 97.9955H1791.43L1840.84 250.676H1841.29L1890.25 97.9955H1960.14Z" fill="white" fill-opacity="0.9"/>
<path d="M2064.31 339.257C2043.83 339.257 2025.88 335.845 2010.45 329.019C1995.01 321.897 1982.25 312.698 1972.16 301.421C1962.37 290.144 1954.95 277.087 1949.91 262.249C1945.16 247.115 1942.79 231.535 1942.79 215.51C1942.79 199.782 1945.16 184.5 1949.91 169.662C1954.66 154.527 1961.93 141.322 1971.72 130.045C1981.51 118.472 1993.98 109.272 2009.11 102.447C2024.24 95.3247 2041.9 91.7637 2062.08 91.7637C2081.67 91.7637 2098.73 95.1763 2113.27 102.002C2128.11 108.53 2140.28 117.285 2149.77 128.265C2159.56 138.948 2166.83 151.411 2171.58 165.656C2176.33 179.603 2178.71 193.996 2178.71 208.833V233.761H2012.67C2012.97 250.973 2018.16 264.327 2028.25 273.823C2038.34 283.319 2050.95 288.067 2066.09 288.067C2078.55 288.067 2088.05 285.396 2094.58 280.055C2101.1 274.416 2104.66 268.481 2105.26 262.249H2174.25C2170.99 285.396 2159.27 304.092 2139.09 318.336C2118.91 332.283 2093.98 339.257 2064.31 339.257ZM2062.08 142.954C2049.02 142.954 2038.04 146.96 2029.14 154.972C2020.24 162.688 2014.9 173.816 2013.12 188.357H2108.82C2108.23 173.52 2103.63 162.243 2095.02 154.527C2086.41 146.812 2075.43 142.954 2062.08 142.954Z" fill="white" fill-opacity="0.9"/>
<path d="M2194.13 333.025V97.9955H2260.9V139.838H2261.35C2262.53 135.09 2264.76 130.342 2268.02 125.594C2271.29 120.549 2275.59 115.949 2280.93 111.795C2286.57 107.64 2293.25 104.227 2300.96 101.557C2308.98 98.8858 2318.32 97.5504 2329.01 97.5504H2355.27V161.649H2316.1C2297.7 161.649 2284.35 165.21 2276.04 172.333C2268.02 179.455 2264.02 190.286 2264.02 204.827V333.025H2194.13Z" fill="white" fill-opacity="0.9"/>
<path d="M2358.17 167.436C2360.84 144.883 2371.37 126.632 2389.77 112.685C2408.17 98.7374 2433.24 91.7637 2465 91.7637C2478.35 91.7637 2491.11 93.2474 2503.28 96.215C2515.74 99.1825 2526.57 104.079 2535.77 110.904C2545.27 117.433 2552.84 126.187 2558.47 137.167C2564.11 148.147 2566.93 161.649 2566.93 177.674V265.81C2566.93 271.449 2568.12 275.158 2570.49 276.939C2572.87 278.719 2576.43 279.609 2581.18 279.609H2594.98V333.025H2558.47C2541.56 333.025 2529.39 329.464 2521.97 322.342C2514.85 315.22 2511.29 306.021 2511.29 294.744V294.299H2510.85C2505.21 307.95 2495.86 318.93 2482.8 327.239C2470.04 335.251 2454.17 339.257 2435.17 339.257C2410.25 339.257 2389.92 332.877 2374.19 320.117C2358.76 307.059 2351.04 289.402 2351.04 267.146C2351.04 243.405 2359.35 225.748 2375.97 214.175C2392.59 202.305 2415.59 194.441 2444.97 190.583L2469.45 187.467C2479.54 186.28 2486.66 183.906 2490.81 180.345C2495.27 176.784 2497.49 171.887 2497.49 165.656C2497.49 159.127 2494.97 153.489 2489.92 148.741C2484.88 143.696 2476.13 141.173 2463.66 141.173C2451.79 141.173 2442.74 143.696 2436.51 148.741C2430.28 153.489 2427.01 159.721 2426.72 167.436H2358.17ZM2498.38 239.993V222.187C2496.3 223.671 2493.04 225.452 2488.59 227.529C2484.43 229.31 2479.24 230.497 2473.01 231.09L2455.65 233.316C2443.78 234.8 2434.58 237.767 2428.05 242.218C2421.82 246.67 2418.7 252.605 2418.7 260.024V262.694C2418.7 270.113 2421.37 276.197 2426.72 280.945C2432.06 285.396 2439.92 287.622 2450.31 287.622C2465.44 287.622 2477.16 283.171 2485.47 274.268C2494.08 265.365 2498.38 253.94 2498.38 239.993Z" fill="white" fill-opacity="0.9"/>
<path d="M2593.15 344.599H2661.7C2662.88 352.908 2667.19 359.585 2674.61 364.63C2682.32 369.675 2692.56 372.197 2705.32 372.197C2722.23 372.197 2735.29 367.597 2744.49 358.398C2753.69 349.199 2758.29 334.658 2758.29 314.775V286.732H2757.85C2751.32 296.821 2742.41 305.13 2731.14 311.659C2719.86 317.891 2705.76 321.007 2688.85 321.007C2671.93 321.007 2657.1 317.742 2644.34 311.214C2631.58 304.685 2621.04 296.079 2612.73 285.396C2604.42 274.713 2598.19 262.398 2594.04 248.45C2589.88 234.503 2587.8 220.11 2587.8 205.272C2587.8 191.028 2589.88 177.081 2594.04 163.43C2598.19 149.779 2604.42 137.761 2612.73 127.374C2621.04 116.691 2631.58 108.085 2644.34 101.557C2657.1 95.028 2671.93 91.7637 2688.85 91.7637C2707.55 91.7637 2722.83 95.4731 2734.7 102.892C2746.87 110.014 2756.06 119.51 2762.3 131.38H2762.74V97.9955H2828.18V308.543C2828.18 344.45 2817.49 372.791 2796.13 393.563C2775.06 414.336 2744.64 424.723 2704.87 424.723C2687.66 424.723 2672.23 422.645 2658.58 418.491C2644.93 414.336 2633.36 408.55 2623.86 401.131C2614.66 394.009 2607.39 385.551 2602.05 375.758C2597 365.965 2594.04 355.579 2593.15 344.599ZM2657.69 201.711V211.504C2657.69 228.419 2662.44 241.477 2671.93 250.676C2681.73 259.875 2693.75 264.475 2707.99 264.475C2722.23 264.475 2734.1 259.875 2743.6 250.676C2753.39 241.18 2758.29 228.123 2758.29 211.504V201.711C2758.29 184.796 2753.39 171.739 2743.6 162.54C2734.1 153.34 2722.23 148.741 2707.99 148.741C2693.75 148.741 2681.73 153.34 2671.93 162.54C2662.44 171.442 2657.69 184.5 2657.69 201.711Z" fill="white" fill-opacity="0.9"/>
<path d="M2965.17 339.257C2944.7 339.257 2926.74 335.845 2911.31 329.019C2895.88 321.897 2883.12 312.698 2873.03 301.421C2863.24 290.144 2855.82 277.087 2850.77 262.249C2846.03 247.115 2843.65 231.535 2843.65 215.51C2843.65 199.782 2846.03 184.5 2850.77 169.662C2855.52 154.527 2862.79 141.322 2872.58 130.045C2882.38 118.472 2894.84 109.272 2909.98 102.447C2925.11 95.3247 2942.77 91.7637 2962.95 91.7637C2982.53 91.7637 2999.6 95.1763 3014.14 102.002C3028.97 108.53 3041.14 117.285 3050.64 128.265C3060.43 138.948 3067.7 151.411 3072.45 165.656C3077.2 179.603 3079.57 193.996 3079.57 208.833V233.761H2913.54C2913.83 250.973 2919.03 264.327 2929.12 273.823C2939.21 283.319 2951.82 288.067 2966.95 288.067C2979.42 288.067 2988.91 285.396 2995.44 280.055C3001.97 274.416 3005.53 268.481 3006.12 262.249H3075.12C3071.86 285.396 3060.13 304.092 3039.96 318.336C3019.78 332.283 2994.85 339.257 2965.17 339.257ZM2962.95 142.954C2949.89 142.954 2938.91 146.96 2930.01 154.972C2921.1 162.688 2915.76 173.816 2913.98 188.357H3009.69C3009.09 173.52 3004.49 162.243 2995.89 154.527C2987.28 146.812 2976.3 142.954 2962.95 142.954Z" fill="white" fill-opacity="0.9"/>
</g>
<defs>
<clipPath id="clip0_22410_18460">
<rect width="3080" height="425" fill="white"/>
</clipPath>
</defs>
</svg>
